<svg width="19" height="19" viewBox="0 0 19 19" fill="none" xmlns="http://www.w3.org/2000/svg">
<path d="M9.49999 18.2087C4.67082 18.2087 0.791656 14.3295 0.791656 9.50033C0.791656 4.67116 4.67082 0.791992 9.49999 0.791992C14.3292 0.791992 18.2083 4.67116 18.2083 9.50033C18.2083 14.3295 14.3292 18.2087 9.49999 18.2087ZM9.49999 2.37533C5.54166 2.37533 2.37499 5.54199 2.37499 9.50033C2.37499 13.4587 5.54166 16.6253 9.49999 16.6253C13.4583 16.6253 16.625 13.4587 16.625 9.50033C16.625 5.54199 13.4583 2.37533 9.49999 2.37533Z" fill="white"/>
<path d="M9.49999 10.292C9.02499 10.292 8.70832 9.97533 8.70832 9.50033V6.33366C8.70832 5.85866 9.02499 5.54199 9.49999 5.54199C9.97499 5.54199 10.2917 5.85866 10.2917 6.33366V9.50033C10.2917 9.97533 9.97499 10.292 9.49999 10.292Z" fill="white"/>
<path d="M9.49999 13.4587C9.26249 13.4587 9.10416 13.3795 8.94582 13.2212C8.78749 13.0628 8.70832 12.9045 8.70832 12.667C8.70832 12.5878 8.70832 12.4295 8.78749 12.3503C8.86666 12.2712 8.86666 12.192 8.94582 12.1128C9.18332 11.8753 9.49999 11.7962 9.81666 11.9545C9.89582 11.9545 9.89582 11.9545 9.97499 12.0337C9.97499 12.0337 10.0542 12.1128 10.1333 12.1128C10.2125 12.192 10.2917 12.2712 10.2917 12.3503C10.2917 12.4295 10.2917 12.5878 10.2917 12.667C10.2917 12.7462 10.2917 12.9045 10.2125 12.9837C10.1333 13.0628 10.1333 13.142 10.0542 13.2212C9.89582 13.3795 9.73749 13.4587 9.49999 13.4587Z" fill="white"/>
</svg>
