<svg width="21" height="21" viewBox="0 0 21 21" fill="none" xmlns="http://www.w3.org/2000/svg">
<g clip-path="url(#clip0)">
<path d="M10.3438 1.6579C15.4263 1.74866 19.4361 5.90425 19.3453 10.9868C19.2545 16.0693 15.099 20.0791 10.0164 19.9883C4.93391 19.8975 0.924137 15.742 1.0149 10.6594C1.10566 5.57692 5.26125 1.56714 10.3438 1.6579ZM10.0462 18.3219C14.2122 18.3963 17.6045 15.123 17.6789 10.957C17.7533 6.79101 14.48 3.3987 10.314 3.3243C6.14801 3.24991 2.75569 6.52319 2.6813 10.6892C2.6069 14.8552 5.88019 18.2475 10.0462 18.3219Z" fill="#00558C"/>
<path d="M10.195 9.98991C10.6949 9.99883 11.0222 10.3381 11.0133 10.838L10.9538 14.1708C10.9449 14.6707 10.6056 14.998 10.1057 14.9891C9.60579 14.9802 9.27846 14.6409 9.28739 14.141L9.3469 10.8082C9.35583 10.3083 9.69506 9.98098 10.195 9.98991Z" fill="#00558C"/>
<path d="M10.2545 6.6571C10.5045 6.66157 10.6696 6.74786 10.8333 6.91748C10.9969 7.08709 11.0773 7.25522 11.0728 7.50518C11.0713 7.5885 11.0684 7.75514 10.9835 7.83697C10.8987 7.91881 10.8973 8.00213 10.8124 8.08396C10.558 8.32946 10.2233 8.40682 9.89295 8.23423C9.80963 8.23274 9.80963 8.23275 9.72779 8.14794C9.72779 8.14794 9.64596 8.06313 9.56264 8.06164C9.48081 7.97683 9.39898 7.89203 9.40047 7.80871C9.40195 7.72539 9.40493 7.55875 9.40642 7.47543C9.40791 7.39211 9.41088 7.22547 9.49569 7.14363C9.5805 7.0618 9.58199 6.97848 9.66679 6.89665C9.83641 6.73298 10.0045 6.65264 10.2545 6.6571Z" fill="#00558C"/>
</g>
<defs>
<clipPath id="clip0">
<path d="M20 21L0.00318766 20.6429L0.360279 0.646096L20.3571 1.00319L20 21Z" fill="white"/>
</clipPath>
</defs>
</svg>
