<svg width="24" height="24" viewBox="0 0 24 24" fill="none" xmlns="http://www.w3.org/2000/svg">
<g clip-path="url(#clip0)">
<path fill-rule="evenodd" clip-rule="evenodd" d="M18.66 11.9996C18.66 12.5496 18.21 12.9996 17.66 12.9996H8L12.29 17.2896C12.68 17.6796 12.68 18.3196 12.29 18.7096C11.9 19.0996 11.26 19.0996 10.87 18.7096L5.58 13.4196C5.43 13.2696 5.32 13.1096 5.23 12.9296C5.07 12.6396 5 12.3196 5 11.9996C5 11.6796 5.07 11.3596 5.23 11.0696C5.32 10.8896 5.43 10.7296 5.58 10.5796L10.87 5.28957C11.26 4.89957 11.9 4.89957 12.29 5.28957C12.68 5.67957 12.68 6.31957 12.29 6.70957L8 10.9996H17.66C18.21 10.9996 18.66 11.4496 18.66 11.9996Z" fill="white"/>
</g>
<defs>
<clipPath id="clip0">
<rect x="5" y="5" width="13.66" height="14" fill="white"/>
</clipPath>
</defs>
</svg>
