<svg width="12" height="12" viewBox="0 0 12 12" fill="none" xmlns="http://www.w3.org/2000/svg">
<g opacity="0.6">
<path fill-rule="evenodd" clip-rule="evenodd" d="M2.5 2.5C2.22386 2.5 2 2.72386 2 3V10C2 10.2761 2.22386 10.5 2.5 10.5H9.5C9.77614 10.5 10 10.2761 10 10V3C10 2.72386 9.77614 2.5 9.5 2.5H2.5ZM1 3C1 2.17157 1.67157 1.5 2.5 1.5H9.5C10.3284 1.5 11 2.17157 11 3V10C11 10.8284 10.3284 11.5 9.5 11.5H2.5C1.67157 11.5 1 10.8284 1 10V3Z" fill="white"/>
<path fill-rule="evenodd" clip-rule="evenodd" d="M8 0.5C8.27614 0.5 8.5 0.723858 8.5 1V3C8.5 3.27614 8.27614 3.5 8 3.5C7.72386 3.5 7.5 3.27614 7.5 3V1C7.5 0.723858 7.72386 0.5 8 0.5Z" fill="white"/>
<path fill-rule="evenodd" clip-rule="evenodd" d="M4 0.5C4.27614 0.5 4.5 0.723858 4.5 1V3C4.5 3.27614 4.27614 3.5 4 3.5C3.72386 3.5 3.5 3.27614 3.5 3V1C3.5 0.723858 3.72386 0.5 4 0.5Z" fill="white"/>
<path fill-rule="evenodd" clip-rule="evenodd" d="M1 5C1 4.72386 1.22386 4.5 1.5 4.5H10.5C10.7761 4.5 11 4.72386 11 5C11 5.27614 10.7761 5.5 10.5 5.5H1.5C1.22386 5.5 1 5.27614 1 5Z" fill="white"/>
</g>
</svg>
