<svg width="27" height="35" viewBox="0 0 27 35" fill="none" xmlns="http://www.w3.org/2000/svg">
<path d="M19.0531 0H0.914375C0.409375 0 0 0.409375 0 1.20375V34.375C0 34.5906 0.409375 35 0.914375 35H25.9606C26.4656 35 26.875 34.5906 26.875 34.375V8.11125C26.875 7.67625 26.8169 7.53625 26.7144 7.43312L19.4419 0.160625C19.3387 0.058125 19.1987 0 19.0531 0Z" fill="#F2F2F2"/>
<path d="M19.375 0.0944824V7.50011H26.7806L19.375 0.0944824Z" fill="#E2E5E7"/>
<path d="M7.5 8.125H3.75C3.405 8.125 3.125 7.845 3.125 7.5C3.125 7.155 3.405 6.875 3.75 6.875H7.5C7.845 6.875 8.125 7.155 8.125 7.5C8.125 7.845 7.845 8.125 7.5 8.125Z" fill="#8697CB"/>
<path d="M9.375 11.25H3.75C3.405 11.25 3.125 10.97 3.125 10.625C3.125 10.28 3.405 10 3.75 10H9.375C9.72 10 10 10.28 10 10.625C10 10.97 9.72 11.25 9.375 11.25Z" fill="#8697CB"/>
<path d="M11.875 11.25C11.7125 11.25 11.55 11.1812 11.4313 11.0687C11.3188 10.95 11.25 10.7875 11.25 10.625C11.25 10.4625 11.3188 10.3 11.4313 10.1813C11.6625 9.95 12.0875 9.95 12.3188 10.1813C12.4313 10.3 12.5 10.4625 12.5 10.625C12.5 10.7875 12.4313 10.95 12.3188 11.0687C12.2 11.1812 12.0375 11.25 11.875 11.25Z" fill="#8697CB"/>
<path d="M19.375 11.25H14.375C14.03 11.25 13.75 10.97 13.75 10.625C13.75 10.28 14.03 10 14.375 10H19.375C19.72 10 20 10.28 20 10.625C20 10.97 19.72 11.25 19.375 11.25Z" fill="#8697CB"/>
<path d="M3.75 20.625C3.5875 20.625 3.425 20.5562 3.30625 20.4437C3.19375 20.325 3.125 20.1625 3.125 20C3.125 19.8375 3.19375 19.675 3.30625 19.5563C3.5375 19.325 3.9625 19.325 4.19375 19.5563C4.30625 19.675 4.375 19.8312 4.375 20C4.375 20.1625 4.30625 20.325 4.19375 20.4437C4.075 20.5562 3.9125 20.625 3.75 20.625Z" fill="#8697CB"/>
<path d="M11.25 20.625H6.25C5.905 20.625 5.625 20.345 5.625 20C5.625 19.655 5.905 19.375 6.25 19.375H11.25C11.595 19.375 11.875 19.655 11.875 20C11.875 20.345 11.595 20.625 11.25 20.625Z" fill="#8697CB"/>
<path d="M23.125 11.25H21.875C21.53 11.25 21.25 10.97 21.25 10.625C21.25 10.28 21.53 10 21.875 10H23.125C23.47 10 23.75 10.28 23.75 10.625C23.75 10.97 23.47 11.25 23.125 11.25Z" fill="#8697CB"/>
<path d="M17.5 14.375H3.75C3.405 14.375 3.125 14.095 3.125 13.75C3.125 13.405 3.405 13.125 3.75 13.125H17.5C17.845 13.125 18.125 13.405 18.125 13.75C18.125 14.095 17.845 14.375 17.5 14.375Z" fill="#8697CB"/>
<path d="M23.125 14.375H19.375C19.03 14.375 18.75 14.095 18.75 13.75C18.75 13.405 19.03 13.125 19.375 13.125H23.125C23.47 13.125 23.75 13.405 23.75 13.75C23.75 14.095 23.47 14.375 23.125 14.375Z" fill="#8697CB"/>
<path d="M6.25 17.5H3.75C3.405 17.5 3.125 17.22 3.125 16.875C3.125 16.53 3.405 16.25 3.75 16.25H6.25C6.595 16.25 6.875 16.53 6.875 16.875C6.875 17.22 6.595 17.5 6.25 17.5Z" fill="#8697CB"/>
<path d="M15 17.5H8.75C8.405 17.5 8.125 17.22 8.125 16.875C8.125 16.53 8.405 16.25 8.75 16.25H15C15.345 16.25 15.625 16.53 15.625 16.875C15.625 17.22 15.345 17.5 15 17.5Z" fill="#8697CB"/>
<path d="M23.125 17.5H17.5C17.155 17.5 16.875 17.22 16.875 16.875C16.875 16.53 17.155 16.25 17.5 16.25H23.125C23.47 16.25 23.75 16.53 23.75 16.875C23.75 17.22 23.47 17.5 23.125 17.5Z" fill="#8697CB"/>
<path d="M25.9606 35H0.914375C0.409375 35 0 34.5906 0 34.0856V24.375H26.875V34.0856C26.875 34.5906 26.4656 35 25.9606 35Z" fill="#0096E6"/>
<path d="M10.6248 29.8014C10.6248 30.3195 10.5691 30.7626 10.4579 31.1301C10.3466 31.4976 10.206 31.8051 10.0348 32.0533C9.86352 32.3014 9.67164 32.4964 9.45789 32.6389C9.24414 32.7814 9.03789 32.8876 8.83852 32.9595C8.63914 33.0308 8.45664 33.0764 8.29164 33.0964C8.12664 33.1151 8.00414 33.1251 7.92477 33.1251H5.54102V26.8276H7.43727C7.96727 26.8276 8.43289 26.912 8.83414 27.0795C9.23539 27.247 9.56914 27.4714 9.83414 27.7501C10.0991 28.0289 10.2966 28.347 10.4279 28.7026C10.5591 29.0589 10.6248 29.4251 10.6248 29.8014ZM7.58289 32.3733C8.27789 32.3733 8.77914 32.1514 9.08664 31.707C9.39414 31.2626 9.54789 30.6189 9.54789 29.7758C9.54789 29.5139 9.51664 29.2545 9.45414 28.9983C9.39102 28.742 9.27039 28.5101 9.09102 28.302C8.91164 28.0939 8.66789 27.9258 8.36039 27.7976C8.05289 27.6695 7.65414 27.6051 7.16414 27.6051H6.56602V32.3733H7.58289Z" fill="white"/>
<path d="M16.859 29.9463C16.859 30.4763 16.7922 30.9432 16.6584 31.3476C16.5247 31.752 16.339 32.0882 16.1028 32.3557C15.8665 32.6238 15.5903 32.8257 15.274 32.9626C14.9578 33.0995 14.6115 33.1676 14.2359 33.1676C13.8603 33.1676 13.514 33.0995 13.1978 32.9626C12.8815 32.8257 12.6053 32.6238 12.369 32.3557C12.1328 32.0876 11.9472 31.752 11.8134 31.3476C11.6797 30.9432 11.6128 30.4757 11.6128 29.9463C11.6128 29.417 11.6797 28.9507 11.8134 28.5495C11.9472 28.1476 12.1322 27.8132 12.369 27.5457C12.6053 27.2776 12.8815 27.0745 13.1978 26.9345C13.514 26.7945 13.8603 26.7251 14.2359 26.7251C14.6115 26.7251 14.9578 26.7945 15.274 26.9345C15.5903 27.0745 15.8665 27.2776 16.1028 27.5457C16.339 27.8138 16.524 28.1482 16.6584 28.5495C16.7915 28.9507 16.859 29.4163 16.859 29.9463ZM14.2097 32.3307C14.4203 32.3307 14.6209 32.2895 14.8122 32.207C15.0028 32.1245 15.174 31.9888 15.3247 31.8013C15.4753 31.6132 15.594 31.367 15.679 31.062C15.764 30.757 15.8097 30.3857 15.8159 29.947C15.8103 29.5195 15.7659 29.1563 15.6834 28.8576C15.6009 28.5582 15.4872 28.312 15.3415 28.1182C15.1959 27.9245 15.0309 27.7851 14.8459 27.6995C14.6609 27.6138 14.4659 27.5713 14.2603 27.5713C14.0497 27.5713 13.8484 27.6107 13.6578 27.6907C13.4665 27.7707 13.2959 27.9057 13.1453 28.0963C12.994 28.2876 12.8759 28.5332 12.7909 28.8357C12.7059 29.1382 12.6597 29.5076 12.654 29.9463C12.6597 30.3738 12.704 30.7382 12.7865 31.0401C12.869 31.342 12.9828 31.5882 13.1284 31.7795C13.274 31.9707 13.439 32.1095 13.624 32.1982C13.8097 32.2863 14.0047 32.3307 14.2097 32.3307Z" fill="white"/>
<path d="M22.5668 32.4845C22.333 32.712 22.068 32.8832 21.7724 32.997C21.4761 33.1113 21.1574 33.1676 20.8155 33.1676C20.4393 33.1676 20.0936 33.0995 19.7774 32.9626C19.4611 32.8257 19.1849 32.6238 18.9486 32.3557C18.7124 32.0876 18.5268 31.752 18.393 31.3476C18.2593 30.9432 18.1924 30.4757 18.1924 29.9463C18.1924 29.417 18.2593 28.9507 18.393 28.5495C18.5268 28.1476 18.7118 27.8132 18.9486 27.5457C19.1849 27.2776 19.4624 27.0745 19.7818 26.9345C20.1005 26.7945 20.4455 26.7251 20.8155 26.7251C21.1574 26.7251 21.4761 26.782 21.7724 26.8957C22.0686 27.0101 22.333 27.1807 22.5668 27.4082L21.8574 28.0407C21.7149 27.8751 21.5568 27.7557 21.383 27.682C21.2093 27.6082 21.0286 27.5707 20.8405 27.5707C20.6299 27.5707 20.4286 27.6101 20.238 27.6901C20.0468 27.7701 19.8761 27.9051 19.7255 28.0957C19.5743 28.287 19.4561 28.5326 19.3711 28.8351C19.2861 29.1376 19.2399 29.507 19.2343 29.9457C19.2399 30.3732 19.2843 30.7376 19.3668 31.0395C19.4493 31.3413 19.563 31.5876 19.7086 31.7788C19.8543 31.9701 20.0193 32.1088 20.2043 32.1976C20.3893 32.2863 20.5843 32.3301 20.7899 32.3301C20.9955 32.3301 21.1874 32.2926 21.3668 32.2188C21.5461 32.1451 21.7099 32.0251 21.858 31.8601L22.5668 32.4845Z" fill="white"/>
</svg>
