<svg width="23" height="23" viewBox="0 0 23 23" fill="none" xmlns="http://www.w3.org/2000/svg">
<path d="M11.5107 19.3229L7.47809 15.0599L8.78345 13.8251L11.5072 16.7044L14.2148 13.8268L15.5235 15.0581L11.5107 19.3229ZM18.957 17.6094V5.39062C18.957 2.41824 16.5388 0 13.5664 0H9.43359C6.4612 0 4.04297 2.41824 4.04297 5.39062V17.6094C4.04297 20.5818 6.4612 23 9.43359 23H13.5664C16.5388 23 18.957 20.5818 18.957 17.6094ZM13.5664 1.79688C15.5481 1.79688 17.1602 3.40897 17.1602 5.39062V17.6094C17.1602 19.591 15.5481 21.2031 13.5664 21.2031H9.43359C7.45194 21.2031 5.83984 19.591 5.83984 17.6094V5.39062C5.83984 3.40897 7.45194 1.79688 9.43359 1.79688H13.5664ZM11.5 3.63867C11.0038 3.63867 10.6016 4.04086 10.6016 4.53711C10.6016 5.03336 11.0038 5.43555 11.5 5.43555C11.9962 5.43555 12.3984 5.03336 12.3984 4.53711C12.3984 4.04086 11.9962 3.63867 11.5 3.63867ZM11.5 7.23242C11.0038 7.23242 10.6016 7.63461 10.6016 8.13086C10.6016 8.62711 11.0038 9.0293 11.5 9.0293C11.9962 9.0293 12.3984 8.62711 12.3984 8.13086C12.3984 7.63461 11.9962 7.23242 11.5 7.23242ZM11.5 10.8262C11.0038 10.8262 10.6016 11.2284 10.6016 11.7246C10.6016 12.2209 11.0038 12.623 11.5 12.623C11.9962 12.623 12.3984 12.2209 12.3984 11.7246C12.3984 11.2284 11.9962 10.8262 11.5 10.8262Z" fill="#96B1CC"/>
</svg>
