<svg width="80" height="80" viewBox="0 0 80 80" fill="none" xmlns="http://www.w3.org/2000/svg">
<path d="M50.5099 41.49L52.1756 45.6515H43.8756C46.9092 40.2093 48.5205 34.0904 48.5617 27.8599L54.2857 26.1426V27.9932C54.2857 28.2987 54.276 28.6028 54.2697 28.9083C51.7167 29.8152 50.0084 32.228 50 34.9372V38.8358C49.9993 39.7447 50.1723 40.6459 50.5099 41.49ZM30 51.3658C30.0014 52.8251 30.5643 54.2278 31.5716 55.2846C31.0414 55.6703 30.5218 56.07 29.9742 56.4272L27.1429 58.2387L24.3171 56.423C17.9827 52.3619 13.1662 46.3232 10.6159 39.2446L45.6731 28.727C45.4778 34.721 43.7088 40.5573 40.5441 45.6515H35.7143C32.5586 45.6515 30 48.2101 30 51.3658ZM0.77567 36.7041C0.764509 36.633 0.751256 36.5611 0.740095 36.4927L6.41741 34.7942C6.58552 35.6515 6.7899 36.5088 7.01869 37.3458L1.25977 39.0744C1.07143 38.254 0.915876 37.4728 0.77567 36.7041ZM0.117188 30.9654L5.7673 29.2697C5.80706 30.166 5.87263 31.0554 5.97586 31.9385L0.338309 33.63C0.324358 33.5017 0.313198 33.374 0.298549 33.2457C0.226004 32.5084 0.159738 31.7613 0.117188 30.9654ZM45.7143 14.3032L8.57143 25.4457V15.2302L27.1917 8.5798L45.7143 13.8714V14.3032ZM45.7143 17.2859V20.0174L8.76604 31.1014C8.67606 30.2141 8.62026 29.3206 8.59724 28.4215L45.7143 17.2859ZM54.2857 20.4283V23.1599L48.5714 24.8744V22.1429L54.2857 20.4283ZM54.2857 17.4456L48.5714 19.1602V16.4286L54.2857 14.714V17.4456ZM9.16574 33.9641L32.4114 26.9915L45.7143 23.0001V25.7317L9.75446 36.52C9.52846 35.6773 9.32687 34.827 9.16574 33.9641ZM0 8.14314L27.1429 0L54.2857 8.14314V11.7313L48.5714 13.4459V12.7944C48.5714 12.1568 48.1487 11.5967 47.5356 11.4216L27.5356 5.70731C27.2489 5.6236 26.9434 5.63337 26.6629 5.73451L6.66295 12.8774C6.09375 13.0804 5.71429 13.6189 5.71429 14.2229V26.303L0 28.0169L0 8.14314ZM27.1429 72.62C14.8382 66.2988 5.70592 55.1576 1.92313 41.8513L7.87598 40.0656C10.6222 47.7986 15.8629 54.398 22.7713 58.826L26.37 61.1384C26.8408 61.4411 27.4449 61.4411 27.9157 61.1384L31.5144 58.826L31.5513 58.8016C31.0484 61.1719 32.1136 63.5986 34.1985 64.8326C33.3315 65.8615 32.8564 67.1631 32.8571 68.5087C32.8599 68.7075 32.8732 68.9056 32.8969 69.103C31.0596 70.4025 29.1371 71.5779 27.1429 72.62ZM63.8574 79.9372H40C38.4222 79.9372 37.1429 78.6579 37.1429 77.0801C37.1401 75.5964 38.2833 74.3631 39.7628 74.2529C40.5308 74.1734 41.1035 73.5094 41.07 72.7386C41.04 71.9713 40.4095 71.3651 39.6415 71.3658H38.5714C36.9936 71.3658 35.7143 70.0865 35.7143 68.5087C35.7143 66.9308 36.9936 65.6515 38.5714 65.6515C39.3604 65.6515 40 65.0119 40 64.2229C40 63.434 39.3604 62.7944 38.5714 62.7944H37.1429C35.565 62.7944 34.2857 61.5151 34.2857 59.9372C34.2857 58.3594 35.565 57.0801 37.1429 57.0801C37.9318 57.0801 38.5714 56.4404 38.5714 55.6515C38.5714 54.8626 37.9318 54.2229 37.1429 54.2229H35.7143C34.1364 54.2229 32.8571 52.9436 32.8571 51.3658C32.8571 49.788 34.1364 48.5087 35.7143 48.5087H54.2857C54.76 48.5087 55.2037 48.2736 55.4694 47.8809C55.7359 47.4881 55.7896 46.9887 55.6131 46.5485L53.1641 40.4283C52.9604 39.9226 52.8564 39.3813 52.8571 38.8358V34.9372C52.8571 32.9646 54.4559 31.3658 56.4286 31.3658C58.4012 31.3658 60 32.9646 60 34.9372V39.9372C60 40.1193 60.0342 40.2992 60.1012 40.4688L62.9583 47.6116C63.1159 48.0008 63.4361 48.3022 63.8344 48.4354L71.4286 50.9668V74.887L63.8574 79.9372ZM80 74.2229H74.2857V51.3658H80V74.2229Z" fill="#00558C"/>
<path d="M61.4083 24.3254C64.88 25.7003 67.1547 29.061 67.1428 32.7943H69.9999C70.0167 27.8912 67.0284 23.4779 62.4699 21.6726L61.96 21.4683L60.897 24.1196L61.4083 24.3254Z" fill="#00558C"/>
<path d="M61.4083 24.3254C64.88 25.7003 67.1547 29.061 67.1428 32.7943H69.9999C70.0167 27.8912 67.0284 23.4779 62.4699 21.6726L61.96 21.4683L60.897 24.1196L61.4083 24.3254Z" fill="#0090D2"/>
<mask id="mask0" mask-type="alpha" maskUnits="userSpaceOnUse" x="0" y="0" width="80" height="80">
<path d="M50.5099 41.49L52.1756 45.6515H43.8756C46.9092 40.2093 48.5205 34.0904 48.5617 27.8599L54.2857 26.1426V27.9932C54.2857 28.2987 54.276 28.6028 54.2697 28.9083C51.7167 29.8152 50.0084 32.228 50 34.9372V38.8358C49.9993 39.7447 50.1723 40.6459 50.5099 41.49ZM30 51.3658C30.0014 52.8251 30.5643 54.2278 31.5716 55.2846C31.0414 55.6703 30.5218 56.07 29.9742 56.4272L27.1429 58.2387L24.3171 56.423C17.9827 52.3619 13.1662 46.3232 10.6159 39.2446L45.6731 28.727C45.4778 34.721 43.7088 40.5573 40.5441 45.6515H35.7143C32.5586 45.6515 30 48.2101 30 51.3658ZM0.77567 36.7041C0.764509 36.633 0.751256 36.5611 0.740095 36.4927L6.41741 34.7942C6.58552 35.6515 6.7899 36.5088 7.01869 37.3458L1.25977 39.0744C1.07143 38.254 0.915876 37.4728 0.77567 36.7041ZM0.117188 30.9654L5.7673 29.2697C5.80706 30.166 5.87263 31.0554 5.97586 31.9385L0.338309 33.63C0.324358 33.5017 0.313198 33.374 0.298549 33.2457C0.226004 32.5084 0.159738 31.7613 0.117188 30.9654ZM45.7143 14.3032L8.57143 25.4457V15.2302L27.1917 8.5798L45.7143 13.8714V14.3032ZM45.7143 17.2859V20.0174L8.76604 31.1014C8.67606 30.2141 8.62026 29.3206 8.59724 28.4215L45.7143 17.2859ZM54.2857 20.4283V23.1599L48.5714 24.8744V22.1429L54.2857 20.4283ZM54.2857 17.4456L48.5714 19.1602V16.4286L54.2857 14.714V17.4456ZM9.16574 33.9641L32.4114 26.9915L45.7143 23.0001V25.7317L9.75446 36.52C9.52846 35.6773 9.32687 34.827 9.16574 33.9641ZM0 8.14314L27.1429 0L54.2857 8.14314V11.7313L48.5714 13.4459V12.7944C48.5714 12.1568 48.1487 11.5967 47.5356 11.4216L27.5356 5.70731C27.2489 5.6236 26.9434 5.63337 26.6629 5.73451L6.66295 12.8774C6.09375 13.0804 5.71429 13.6189 5.71429 14.2229V26.303L0 28.0169L0 8.14314ZM27.1429 72.62C14.8382 66.2988 5.70592 55.1576 1.92313 41.8513L7.87598 40.0656C10.6222 47.7986 15.8629 54.398 22.7713 58.826L26.37 61.1384C26.8408 61.4411 27.4449 61.4411 27.9157 61.1384L31.5144 58.826L31.5513 58.8016C31.0484 61.1719 32.1136 63.5986 34.1985 64.8326C33.3315 65.8615 32.8564 67.1631 32.8571 68.5087C32.8599 68.7075 32.8732 68.9056 32.8969 69.103C31.0596 70.4025 29.1371 71.5779 27.1429 72.62ZM63.8574 79.9372H40C38.4222 79.9372 37.1429 78.6579 37.1429 77.0801C37.1401 75.5964 38.2833 74.3631 39.7628 74.2529C40.5308 74.1734 41.1035 73.5094 41.07 72.7386C41.04 71.9713 40.4095 71.3651 39.6415 71.3658H38.5714C36.9936 71.3658 35.7143 70.0865 35.7143 68.5087C35.7143 66.9308 36.9936 65.6515 38.5714 65.6515C39.3604 65.6515 40 65.0119 40 64.2229C40 63.434 39.3604 62.7944 38.5714 62.7944H37.1429C35.565 62.7944 34.2857 61.5151 34.2857 59.9372C34.2857 58.3594 35.565 57.0801 37.1429 57.0801C37.9318 57.0801 38.5714 56.4404 38.5714 55.6515C38.5714 54.8626 37.9318 54.2229 37.1429 54.2229H35.7143C34.1364 54.2229 32.8571 52.9436 32.8571 51.3658C32.8571 49.788 34.1364 48.5087 35.7143 48.5087H54.2857C54.76 48.5087 55.2037 48.2736 55.4694 47.8809C55.7359 47.4881 55.7896 46.9887 55.6131 46.5485L53.1641 40.4283C52.9604 39.9226 52.8564 39.3813 52.8571 38.8358V34.9372C52.8571 32.9646 54.4559 31.3658 56.4286 31.3658C58.4012 31.3658 60 32.9646 60 34.9372V39.9372C60 40.1193 60.0342 40.2992 60.1012 40.4688L62.9583 47.6116C63.1159 48.0008 63.4361 48.3022 63.8344 48.4354L71.4286 50.9668V74.887L63.8574 79.9372ZM80 74.2229H74.2857V51.3658H80V74.2229Z" fill="#0090D2"/>
</mask>
<g mask="url(#mask0)">
<path d="M32.7272 72.7273L30.303 78.1818L30.909 80.6061L83.6363 83.6364L86.6666 53.3333L72.1212 43.6364L59.9999 30.303L56.3636 28.4849L52.1212 32.1212L51.5151 36.9697L52.1212 41.8182L53.9393 46.6667H44.2424L32.7272 47.8788L30.909 50.9091L32.7272 56.3636L33.9393 62.4243L35.7575 64.8485L32.7272 72.7273Z" fill="#0090D2"/>
</g>
</svg>
