<svg width="95" height="81" viewBox="0 0 95 81" fill="none" xmlns="http://www.w3.org/2000/svg">
<path d="M88.8 0H6.2C2.8 0 0 2.8 0 6.2V74.1C0 77.5 2.8 80.3 6.2 80.3H88.8C92.2 80.3 95 77.5 95 74.1V6.3C95 2.8 92.2 0 88.8 0ZM29.6 6.4C31.3 6.4 32.6 7.8 32.6 9.4C32.6 11.1 31.2 12.4 29.6 12.4C27.9 12.4 26.6 11 26.6 9.4C26.6 7.8 28 6.4 29.6 6.4ZM20.3 6.4C22 6.4 23.3 7.8 23.3 9.4C23.3 11.1 21.9 12.4 20.3 12.4C18.6 12.4 17.3 11 17.3 9.4C17.2 7.8 18.6 6.4 20.3 6.4ZM10.9 6.4C12.6 6.4 13.9 7.8 13.9 9.4C13.9 11.1 12.5 12.4 10.9 12.4C9.2 12.4 7.9 11 7.9 9.4C7.9 7.8 9.2 6.4 10.9 6.4ZM87.3 72.7H7.7V19.1H87.3V72.7Z" fill="#00558C"/>
<path d="M78.1 37.2002C77.2 31.8002 72.6 27.7002 67 27.7002C65.7 27.7002 64.5 28.0002 63.3 28.4002L68.1 37.3002H78.1V37.2002Z" fill="#0090D2"/>
<path d="M67 50.3001C72.6 50.3001 77.3 46.2001 78.1 40.8001H67C66.3 40.8001 65.7 40.4001 65.4 39.9001L60.1 30.1001C57.4 32.2001 55.6 35.4001 55.6 39.1001C55.7 45.2001 60.7 50.3001 67 50.3001Z" fill="#0090D2"/>
<path d="M18.7 51.1C19.3 51.1 19.8 50.8 20.2 50.4L27.1 41.2L32.8 45.4C33.2 45.7 33.7 45.8 34.2 45.7C34.7 45.6 35.1 45.4 35.4 45L42.2 35.8L44.1 37.2C44.5 37.5 45 37.6 45.5 37.3C46 37.1 46.2 36.6 46.3 36.1L46.6 28.6C46.6 28.2 46.4 27.7 46.1 27.5C45.7 27.2 45.3 27.2 44.9 27.3L37.8 29.7C37.3 29.9 37 30.3 36.9 30.8C36.8 31.3 37 31.8 37.4 32.1L39.3 33.5L33.5 41.4L27.8 37.1C27.4 36.8 26.9 36.7 26.4 36.8C25.9 36.9 25.5 37.1 25.2 37.5L17.2 48.2C16.6 49 16.8 50.2 17.6 50.8C17.9 51 18.3 51.1 18.7 51.1Z" fill="#0090D2"/>
<path d="M18.1 64.4001H23.2C23.9 64.4001 24.5 63.8001 24.5 63.1001V55.9001C24.5 55.2001 23.9 54.6001 23.2 54.6001H18.1C17.4 54.6001 16.8 55.2001 16.8 55.9001V63.2001C16.9 63.9001 17.4 64.4001 18.1 64.4001Z" fill="#0090D2"/>
<path d="M34.7 49.6001H29.6C28.9 49.6001 28.3 50.2001 28.3 50.9001V63.2001C28.3 63.9001 28.9 64.5001 29.6 64.5001H34.7C35.4 64.5001 36 63.9001 36 63.2001V50.9001C36 50.2001 35.4 49.6001 34.7 49.6001Z" fill="#0090D2"/>
<path d="M41 44.5C40.3 44.5 39.7 45.1 39.7 45.8V63.2C39.7 63.9 40.3 64.5 41 64.5H46.1C46.8 64.5 47.4 63.9 47.4 63.2V45.8C47.4 45.1 46.8 44.5 46.1 44.5H41Z" fill="#0090D2"/>
<path d="M57 64.4002H76.9C77.6 64.4002 78.2 63.8002 78.2 63.1002V58.0002C78.2 57.3002 77.6 56.7002 76.9 56.7002H57C56.3 56.7002 55.7 57.3002 55.7 58.0002V63.2002C55.7 63.9002 56.2 64.4002 57 64.4002Z" fill="#0090D2"/>
</svg>
