<svg width="94" height="98" viewBox="0 0 94 98" fill="none" xmlns="http://www.w3.org/2000/svg">
<path d="M74.2033 96.5868C74.05 97.0468 73.5901 97.2001 73.1301 97.2001H20.6973C20.2374 97.2001 19.7775 96.8935 19.6241 96.5868C19.4708 96.1269 19.4708 95.667 19.7775 95.3603L26.9831 86.7749C27.1364 86.4682 27.4431 86.3149 27.903 86.3149H34.1888V76.5029H59.6387V86.3149H65.9245C66.2311 86.3149 66.5377 86.4682 66.8443 86.7749L74.05 95.3603C74.3567 95.667 74.3566 96.1269 74.2033 96.5868Z" fill="#00558C"/>
<path d="M86.7748 13.4912H77.2694C77.4227 13.9511 77.576 14.2578 77.576 14.7177V21.1568H86.1615V61.018H77.576H16.2511H7.66562V21.1568H16.2511V13.4912H7.05237C3.21956 13.4912 0 16.7108 0 20.5436V67.3038C0 71.1367 3.21956 74.3562 7.05237 74.3562H86.6215C90.4543 74.3562 93.6738 71.1367 93.6738 67.3038V20.5436C93.8272 16.5575 90.6076 13.4912 86.7748 13.4912ZM46.9136 69.9102C45.3805 69.9102 44.154 68.6837 44.154 67.1505C44.154 63.471 49.8265 63.471 49.8265 67.1505C49.6732 68.5303 48.4467 69.9102 46.9136 69.9102Z" fill="#00558C"/>
<path d="M75.2765 15.7912H60.5585C59.9453 15.7912 59.332 15.3312 59.332 14.5647V0H19.7775C19.1642 0 18.551 0.459937 18.551 1.2265V58.8719H75.2765V15.7912ZM26.5232 13.4915H56.1125V15.7912H26.5232V13.4915ZM67.9175 54.1193L26.3699 53.6593V51.3596L67.9175 51.8196V54.1193ZM68.2242 46.3003H26.5232V44.0006H68.0708V46.3003H68.2242ZM62.5516 36.335V38.6347L32.0424 38.4814V36.1817L62.5516 36.335ZM32.1958 30.9691V28.6694L62.7049 28.8227V31.1224L32.1958 30.9691ZM68.2242 23.3035H26.5232V21.0038H68.0708V23.3035H68.2242Z" fill="#0090D2"/>
<path d="M61.6315 0.613281V13.4915H74.5097L61.6315 0.613281Z" fill="#0090D2"/>
</svg>
