<svg width="76" height="76" viewBox="0 0 76 76" fill="none" xmlns="http://www.w3.org/2000/svg">
<g clip-path="url(#clip0)">
<path d="M60.7911 38.5796C60.3587 38.0031 59.541 37.8863 58.9644 38.3187C58.6875 38.5264 58.5043 38.8357 58.4556 39.1785L57.7314 44.254C57.714 44.3193 57.6911 44.3829 57.6636 44.4445C58.9943 42.6775 60.0682 40.731 60.8537 38.6631L60.7911 38.5796Z" fill="black"/>
<path d="M56.4384 45.3735C56.3769 45.3735 56.3154 45.3696 56.2545 45.3618L48.5042 44.2541C47.7908 44.1518 47.2955 43.4908 47.3978 42.7774C47.3978 42.7772 47.3978 42.7772 47.3978 42.7771L48.1219 37.7016C48.2229 36.988 47.7264 36.3278 47.0129 36.2269C46.6715 36.1786 46.3248 36.2673 46.0486 36.4738L41.9465 39.5491C41.3699 39.9815 40.5522 39.8647 40.1198 39.2882L35.4227 33.0253C34.9903 32.4488 35.1071 31.631 35.6836 31.1987L39.7845 28.1233C40.361 27.691 40.4778 26.8732 40.0454 26.2967C39.8377 26.0198 39.5284 25.8366 39.1856 25.7878L34.1101 25.0624C33.3967 24.9609 32.9006 24.3002 33.0022 23.5869C33.0022 23.5864 33.0024 23.5859 33.0024 23.5854L34.1101 15.8364C34.2115 15.1231 34.8722 14.6269 35.5856 14.7285C35.5861 14.7285 35.5866 14.7287 35.5871 14.7287L40.6626 15.4542C41.1847 15.5298 41.7005 15.2816 41.9674 14.8266C42.2445 14.3743 42.2133 13.7979 41.8891 13.3783L38.8164 9.27873C38.384 8.70219 38.5008 7.88444 39.0773 7.45207L39.8171 6.89755C38.6187 6.83965 37.4175 6.87178 36.2238 6.9941C23.3367 8.46554 14.0827 20.1054 15.5542 32.9925C16.3558 40.013 20.2756 46.2993 26.2268 50.1085C28.3995 51.4557 29.7339 53.8189 29.7653 56.3753V61.6478C29.7653 63.8096 31.5177 65.5621 33.6795 65.5621H44.1176C46.2794 65.5621 48.0319 63.8096 48.0319 61.6478V56.4836C48.065 53.8672 49.4268 51.4475 51.646 50.0615C53.703 48.7271 55.5399 47.0808 57.0908 45.1818C56.8941 45.3023 56.669 45.3685 56.4384 45.3735ZM40.2033 61.6478H37.5938V57.7335H40.2033V61.6478ZM37.5938 55.124C37.593 51.6742 35.4657 48.5819 32.2443 47.3476C22.8486 43.6738 18.2102 33.079 21.884 23.6833C23.3065 20.0451 25.858 16.9589 29.1638 14.8774L30.5481 17.0851C23.2292 21.6904 21.0296 31.3567 25.6349 38.6756C27.4191 41.5111 30.066 43.6997 33.1863 44.9195C37.4151 46.5369 40.2066 50.5965 40.2033 55.124H37.5938Z" fill="#00558C"/>
<path d="M33.6794 72.0859V73.3907C33.6794 74.832 34.8477 76.0002 36.289 76.0002H41.508C42.9492 76.0002 44.1175 74.832 44.1175 73.3907V72.0859H33.6794Z" fill="#00558C"/>
<path d="M25.5222 51.2097C24.7491 50.7085 24.0046 50.1644 23.2923 49.58C21.3226 53.4144 16.6177 54.9259 12.7833 52.9564C10.1735 51.6158 8.53602 48.9247 8.54466 45.9906C8.5507 42.0459 11.4885 38.7207 15.4025 38.2286C14.9236 36.7885 14.5777 35.3074 14.3691 33.8042L14.1408 34.8898C13.8443 36.3 12.4604 37.2029 11.0501 36.9064C10.7124 36.8355 10.392 36.6982 10.1078 36.5024L7.39387 34.6392L5.0166 37.0113L6.88501 39.7278C7.70277 40.9145 7.40365 42.5396 6.21697 43.3573C5.93237 43.5533 5.61173 43.691 5.27363 43.7621L2.02087 44.4471V47.5472L5.27363 48.2322C6.68391 48.5292 7.58648 49.9132 7.28949 51.3235C7.21821 51.6621 7.08024 51.9831 6.88371 52.2678L5.0166 54.97L7.39387 57.342L10.1052 55.4736C11.2918 54.6559 12.9169 54.955 13.7347 56.1416C13.9307 56.4262 14.0684 56.7469 14.1395 57.085L14.8232 60.343H17.9246L18.6083 57.0902C18.9051 55.6799 20.2889 54.7772 21.6992 55.074C22.0373 55.1451 22.358 55.2828 22.6426 55.4788L25.3525 57.342L28.1513 54.5433C27.682 53.1642 26.754 51.9875 25.5222 51.2097Z" fill="#00558C"/>
<path d="M44.1175 66.8667H33.6794V69.4762H44.1175V66.8667Z" fill="#00558C"/>
<path d="M71.4771 22.4933C69.3372 22.1874 67.8504 20.2043 68.1564 18.0643C68.3033 17.0367 68.8524 16.1095 69.6831 15.4868L72.7401 13.193L69.6087 9.01781L66.5517 11.3103C64.8225 12.6078 62.3689 12.2578 61.0715 10.5289C60.4493 9.69971 60.1813 8.65737 60.3267 7.63085L60.8668 3.84705L55.7013 3.10986L55.1611 6.89366C54.855 9.03363 52.8721 10.5204 50.7321 10.2144C49.7045 10.0675 48.7773 9.51834 48.1546 8.6877L45.8608 5.62544L41.6856 8.75685L43.9781 11.8139C45.2753 13.5432 44.9251 15.9966 43.1959 17.294C42.3649 17.9174 41.3204 18.1849 40.2921 18.0376L36.5083 17.4974L35.7672 22.6643L39.551 23.2044C41.691 23.5106 43.1777 25.4935 42.8718 27.6334C42.7248 28.6611 42.1757 29.5883 41.3451 30.211L38.2893 32.5047L41.4207 36.68L44.4778 34.3875C46.2071 33.0903 48.6605 33.4404 49.9579 35.1697C50.5813 36.0007 50.8487 37.0453 50.7015 38.0735L50.1613 41.8573L55.3386 42.5984L55.8787 38.8146C56.1849 36.6746 58.1678 35.1878 60.3077 35.4938C61.3354 35.6407 62.2626 36.1899 62.8853 37.0205L65.1791 40.0763L69.3543 36.9448L67.054 33.8826C65.7572 32.153 66.108 29.6995 67.8377 28.4028C68.6668 27.781 69.7087 27.5136 70.7347 27.6589L74.5185 28.199L75.2557 23.0335L71.4771 22.4933ZM55.516 30.6781C51.1924 30.6781 47.6875 27.1732 47.6875 22.8495C47.6875 18.5259 51.1924 15.021 55.516 15.021C59.8397 15.021 63.3446 18.5259 63.3446 22.8495C63.3395 27.1711 59.8375 30.673 55.516 30.6781Z" fill="#0090D2"/>
<path d="M72.8223 48.6001H63.689V51.2096H72.8223V48.6001Z" fill="#0090D2"/>
<path d="M63.2194 55.4253L61.5491 57.4302L69.3782 63.9529L71.0485 61.948L63.2194 55.4253Z" fill="#0090D2"/>
<path d="M58.47 59.0386H55.8605V68.1719H58.47V59.0386Z" fill="#0090D2"/>
<path d="M11.1811 19.9339L0.743774 22.543L1.37627 25.0732L11.8136 22.4641L11.1811 19.9339Z" fill="#0090D2"/>
<path d="M4.4269 7.09254L2.91101 9.21484L12.0436 15.738L13.5595 13.6157L4.4269 7.09254Z" fill="#0090D2"/>
<path d="M16.6185 -0.000868777L14.0905 0.645508L16.759 11.0828L19.2871 10.4364L16.6185 -0.000868777Z" fill="#0090D2"/>
</g>
<defs>
<clipPath id="clip0">
<rect width="76" height="76" fill="white"/>
</clipPath>
</defs>
</svg>
