<svg width="81" height="95" viewBox="0 0 81 95" fill="none" xmlns="http://www.w3.org/2000/svg">
<path d="M73.9 7.8999H67.3V10.9999C67.3 16.3999 62.9 20.8999 57.4 20.8999C52 20.8999 47.6 16.4999 47.6 10.9999V7.8999H33.5V10.9999C33.5 16.3999 29.1 20.8999 23.7 20.8999C18.2 20.8999 13.8 16.4999 13.8 10.9999V7.8999H7.20001C3.30001 7.8999 0.100006 11.0999 0.100006 14.9999V28.1999H81V14.9999C81 11.0999 77.8 7.8999 73.9 7.8999Z" fill="#00558C"/>
<path d="M0 71.6001C0 75.5001 3.2 78.7001 7.1 78.7001H17.7C17.7 78.2001 17.6 77.6001 17.6 77.1001C17.6 64.5001 27.9 54.2001 40.5 54.2001C53.1 54.2001 63.4 64.5001 63.4 77.1001C63.4 77.6001 63.4 78.2001 63.3 78.7001H73.8C77.7 78.7001 80.9 75.5001 80.9 71.6001V33.1001H0V71.6001Z" fill="#00558C"/>
<path d="M23.6 15.9C26.3 15.9 28.5 13.7 28.5 11V4.9C28.5 2.2 26.3 0 23.6 0C20.9 0 18.7 2.2 18.7 4.9V11C18.7 13.7 20.9 15.9 23.6 15.9Z" fill="#00558C"/>
<path d="M57.4 15.9C60.1 15.9 62.3 13.7 62.3 11V4.9C62.3 2.2 60.1 0 57.4 0C54.7 0 52.5 2.2 52.5 4.9V11C52.5 13.7 54.7 15.9 57.4 15.9Z" fill="#00558C"/>
<path d="M40.5 59.2002C30.6 59.2002 22.6 67.3002 22.6 77.1002C22.6 87.0002 30.6 95.0002 40.5 95.0002C50.4 95.0002 58.4 87.0002 58.4 77.1002C58.4 67.2002 50.4 59.2002 40.5 59.2002ZM47.7 82.7002C47.5 82.7002 47.4 82.7002 47.2 82.7002L38.9 81.1002C37.7 80.9002 36.9 79.9002 36.9 78.7002V67.2002C36.9 65.8002 38 64.7002 39.4 64.7002C40.8 64.7002 41.9 65.8002 41.9 67.2002V76.5002L48.2 77.7002C49.5 78.0002 50.4 79.3002 50.2 80.6002C49.9 81.9002 48.9 82.7002 47.7 82.7002Z" fill="#0090D2"/>
</svg>
