<svg width="105" height="88" viewBox="0 0 105 88" fill="none" xmlns="http://www.w3.org/2000/svg">
<path d="M16.6467 35.963C22.3855 35.963 27.0538 31.2935 27.0538 25.5546C27.0538 19.8157 22.3843 15.1475 16.6467 15.1475C10.9078 15.1475 6.23828 19.8169 6.23828 25.5546C6.23949 31.2947 10.9078 35.963 16.6467 35.963Z" fill="#00558C"/>
<path d="M28.8491 39.5122C28.6405 38.7165 27.9219 38.1631 27.0997 38.1631H6.1925C5.36905 38.1631 4.64927 38.7189 4.4419 39.517L0.0581596 56.3768C-0.12751 57.093 0.140144 57.8501 0.735735 58.2878L6.383 62.4497L10.3098 86.4228C10.4533 87.2981 11.2092 87.9395 12.0942 87.9395H22.3796C23.2754 87.9395 24.0361 87.2837 24.1675 86.3987L27.7785 62.2025L32.6577 58.043C33.1858 57.5921 33.41 56.8784 33.234 56.208L28.8491 39.5122Z" fill="#00558C"/>
<path d="M87.3991 35.963C93.138 35.963 97.8063 31.2935 97.8063 25.5546C97.8063 19.8157 93.138 15.1475 87.3991 15.1475C81.6602 15.1475 76.9907 19.8169 76.9907 25.5546C76.9907 31.2947 81.6602 35.963 87.3991 35.963Z" fill="#00558C"/>
<path d="M103.986 56.2056L99.6014 39.5122C99.3916 38.7165 98.6731 38.1631 97.852 38.1631H76.9436C76.1202 38.1631 75.4004 38.7189 75.193 39.517L70.8081 56.3768C70.6224 57.093 70.8901 57.8501 71.4869 58.2878L77.1341 62.4497L81.0609 86.4228C81.2044 87.2981 81.9603 87.9395 82.8453 87.9395H93.1307C94.0265 87.9395 94.7873 87.2837 94.9187 86.3987L98.5284 62.2025L103.409 58.043C103.938 57.5909 104.161 56.8772 103.986 56.2056Z" fill="#00558C"/>
<path d="M52.0108 35.963C57.7497 35.963 62.418 31.2935 62.418 25.5546C62.418 19.8157 57.7497 15.1475 52.0108 15.1475C46.2719 15.1475 41.6024 19.8169 41.6024 25.5546C41.6036 31.2947 46.2719 35.963 52.0108 35.963Z" fill="#0090D2"/>
<path d="M64.2131 39.5122C64.0033 38.7165 63.2848 38.1631 62.4637 38.1631H41.5553C40.7319 38.1631 40.0121 38.7189 39.8047 39.517L35.4198 56.3768C35.2341 57.093 35.5018 57.8501 36.0974 58.2878L41.7458 62.4497L45.6714 86.4228C45.8149 87.2981 46.5708 87.9395 47.4558 87.9395H57.7412C58.637 87.9395 59.3978 87.2837 59.5292 86.3987L63.1389 62.2025L68.0194 58.043C68.5474 57.5921 68.7717 56.8784 68.5969 56.208L64.2131 39.5122Z" fill="#0090D2"/>
<path d="M50.2626 12.462C50.6135 12.8105 51.074 12.9877 51.537 12.9877C51.9361 12.9877 52.3376 12.8563 52.6691 12.5886L64.3241 3.21953C65.103 2.59379 65.2272 1.45566 64.6002 0.676809C63.9745 -0.10204 62.834 -0.223811 62.0587 0.400715L51.6636 8.75587L48.1552 5.27275C47.4462 4.56985 46.3009 4.57226 45.598 5.28239C44.8951 5.99131 44.8987 7.13668 45.6076 7.83957L50.2626 12.462Z" fill="#0090D2"/>
<path d="M10.1711 12.9566C10.5256 13.328 11.0018 13.5148 11.4768 13.5148C11.9265 13.5148 12.3774 13.3485 12.7271 13.0121L16.6454 9.26132L20.5638 13.0121C20.9146 13.3473 21.3643 13.5148 21.8141 13.5148C22.2903 13.5148 22.7653 13.328 23.1198 12.9566C23.8106 12.2357 23.7853 11.0903 23.0643 10.3994L19.2593 6.75718L23.0631 3.11612C23.7853 2.42528 23.8094 1.28112 23.1186 0.558936C22.4277 -0.164454 21.2824 -0.188566 20.5614 0.503477L16.643 4.25425L12.7247 0.503477C12.0037 -0.188566 10.8583 -0.164454 10.1675 0.558936C9.47664 1.27991 9.50196 2.42528 10.2229 3.11612L14.0268 6.75718L10.2278 10.3994C9.50558 11.0903 9.48026 12.2357 10.1711 12.9566Z" fill="#00558C"/>
<path d="M80.9223 12.9566C81.278 13.328 81.753 13.5148 82.2292 13.5148C82.6789 13.5148 83.1299 13.3485 83.4795 13.0121L87.3979 9.26132L91.3162 13.0121C91.6671 13.3473 92.1168 13.5148 92.5665 13.5148C93.0427 13.5148 93.5177 13.328 93.8734 12.9566C94.563 12.2357 94.5389 11.0903 93.8167 10.3994L90.0129 6.75718L93.8167 3.11612C94.5389 2.42528 94.563 1.28112 93.8734 0.558936C93.1814 -0.164454 92.036 -0.188566 91.3162 0.503477L87.3979 4.25425L83.4795 0.503477C82.7561 -0.188566 81.6131 -0.164454 80.9223 0.558936C80.2327 1.27991 80.2568 2.42528 80.979 3.11612L84.7828 6.75718L80.979 10.3994C80.2568 11.0903 80.2327 12.2357 80.9223 12.9566Z" fill="#00558C"/>
</svg>
