<svg width="76" height="80" viewBox="0 0 76 80" fill="none" xmlns="http://www.w3.org/2000/svg">
<g clip-path="url(#clip0)">
<path d="M16.9569 38.0312C18.8146 38.0312 20.6305 37.478 22.175 36.4415C23.7196 35.4049 24.9234 33.9317 25.6343 32.208C26.3452 30.4843 26.5312 28.5877 26.1688 26.7578C25.8064 24.928 24.9119 23.2472 23.5983 21.9279C22.2848 20.6087 20.6112 19.7103 18.7893 19.3463C16.9673 18.9823 15.0789 19.1691 13.3626 19.8831C11.6464 20.5971 10.1795 21.8061 9.14747 23.3574C8.11543 24.9086 7.56458 26.7324 7.56458 28.5981C7.56763 31.099 8.55816 33.4966 10.3189 35.2649C12.0797 37.0333 14.4669 38.0282 16.9569 38.0312Z" fill="#0090D2"/>
<path d="M63.5966 1.96875V12.8246H74.0763L63.5966 1.96875Z" fill="#00558C"/>
<path d="M36.3499 14.5036V31.7469C36.3499 36.2507 33.5353 41.7681 29.8273 44.3081L17.807 52.6023V79.7173H75.517V15.1058H62.5315C61.9046 15.1058 61.326 14.6178 61.326 13.9882V0.283203H17.807V4.55782L35.8051 13.4803C36.1936 13.6718 36.3499 14.0688 36.3499 14.5036ZM65.7175 66.415C66.0185 66.415 66.3073 66.5351 66.5202 66.7489C66.7331 66.9627 66.8527 67.2528 66.8527 67.5552C66.8527 67.8576 66.7331 68.1476 66.5202 68.3614C66.3073 68.5752 66.0185 68.6954 65.7175 68.6954H26.5095C26.2084 68.6954 25.9196 68.5752 25.7067 68.3614C25.4938 68.1476 25.3742 67.8576 25.3742 67.5552C25.3742 67.2528 25.4938 66.9627 25.7067 66.7489C25.9196 66.5351 26.2084 66.415 26.5095 66.415H65.7175ZM50.3583 57.8634C50.3583 58.1658 50.2387 58.4558 50.0258 58.6697C49.8129 58.8835 49.5241 59.0036 49.223 59.0036H26.5095C26.2084 59.0036 25.9196 58.8835 25.7067 58.6697C25.4938 58.4558 25.3742 58.1658 25.3742 57.8634C25.3742 57.561 25.4938 57.271 25.7067 57.0572C25.9196 56.8434 26.2084 56.7232 26.5095 56.7232H49.223C49.5241 56.7232 49.8129 56.8434 50.0258 57.0572C50.2387 57.271 50.3583 57.561 50.3583 57.8634Z" fill="#00558C"/>
<path d="M5.39635 42.4233L16.9338 50.3649L28.5046 42.4233C31.5515 40.3368 34.0793 35.4476 34.0793 31.747V15.2141L16.9556 6.72168L-0.168213 15.1892V31.747C-0.168213 35.4478 2.34946 40.337 5.39635 42.4233ZM16.9573 16.8849C19.264 16.885 21.5188 17.572 23.4367 18.8591C25.3546 20.1463 26.8494 21.9757 27.7321 24.1161C28.6148 26.2564 28.8457 28.6116 28.3957 30.8838C27.9456 33.156 26.8348 35.2431 25.2037 36.8812C23.5726 38.5193 21.4944 39.6349 19.2321 40.0868C16.9697 40.5388 14.6247 40.3068 12.4936 39.4202C10.3625 38.5336 8.54104 37.0323 7.25952 35.106C5.978 33.1797 5.29399 30.9151 5.29399 28.5984C5.29749 25.4928 6.52739 22.5155 8.71385 20.3196C10.9003 18.1236 13.8648 16.8884 16.9569 16.8849H16.9573Z" fill="#0090D2"/>
</g>
<defs>
<clipPath id="clip0">
<rect width="75.3488" height="80" fill="white"/>
</clipPath>
</defs>
</svg>
