<svg width="58" height="58" viewBox="0 0 58 58" fill="none" xmlns="http://www.w3.org/2000/svg">
<path d="M57.584 22.566L51.3434 17.4639V7.9996C51.3434 6.0871 49.7876 4.53125 47.8746 4.53125H38.7422C38.1165 4.53125 37.6094 5.03836 37.6094 5.66406C37.6094 6.28976 38.1165 6.79688 38.7422 6.79688H47.8746C48.5379 6.79688 49.0778 7.33673 49.0778 7.9996V28.1061L34.2109 39.4095L19.3441 28.1061V18.006C19.3441 18.006 19.3441 18.0055 19.3441 18.0051V7.9996C19.3441 7.33673 19.884 6.79688 20.5473 6.79688H29.6797C30.3054 6.79688 30.8125 6.28976 30.8125 5.66406C30.8125 5.03836 30.3054 4.53125 29.6797 4.53125H20.5473C18.6343 4.53125 17.0785 6.0871 17.0785 7.9996V17.4639L10.8378 22.566C10.5745 22.781 10.4219 23.1032 10.4219 23.443V36.0195H5.32422C4.69852 36.0195 4.19141 36.5266 4.19141 37.1523C4.19141 37.7775 4.69852 38.2851 5.32422 38.2851H10.4219V50.0004C10.4219 51.9129 11.9777 53.4688 13.8902 53.4688H54.5316C56.4442 53.4688 58 51.9129 58 50.0004V23.443C58 23.1032 57.8473 22.781 57.584 22.566ZM55.7344 49.4853L42.3309 36.0818L55.7344 25.8914V49.4853ZM51.3434 20.3902L55.1419 23.4957L51.3434 26.3835V20.3902ZM34.2109 41.9654C34.4525 41.9654 34.6942 41.8884 34.8968 41.7344L40.5109 37.466L54.248 51.2031H14.1739L27.911 37.466L33.5255 41.7344C33.7277 41.8884 33.9693 41.9654 34.2109 41.9654ZM12.6875 25.8914L26.091 36.0818L12.6875 49.4853V25.8914ZM17.0785 26.3835L13.28 23.4957L17.0785 20.3902V26.3835Z" fill="white"/>
<path d="M7.25 43.2695H1.13281C0.507111 43.2695 0 43.7766 0 44.4023C0 45.0276 0.507111 45.5352 1.13281 45.5352H7.25C7.8757 45.5352 8.38281 45.0276 8.38281 44.4023C8.38281 43.7766 7.8757 43.2695 7.25 43.2695Z" fill="white"/>
<path d="M34.2109 6.79688C34.5087 6.79688 34.8012 6.67563 35.0119 6.465C35.2225 6.25436 35.3438 5.96187 35.3438 5.66406C35.3438 5.36626 35.2225 5.07376 35.0119 4.86313C34.8012 4.6525 34.5087 4.53125 34.2109 4.53125C33.9131 4.53125 33.6206 4.6525 33.41 4.86313C33.1994 5.07376 33.0781 5.36626 33.0781 5.66406C33.0781 5.96187 33.1994 6.25436 33.41 6.465C33.6206 6.67563 33.9131 6.79688 34.2109 6.79688Z" fill="white"/>
<path d="M25.02 20.9562C25.02 26.0242 29.1428 30.1475 34.2108 30.1475C39.2789 30.1475 43.4017 26.0242 43.4017 20.9562C43.4017 15.8882 39.2789 11.7654 34.2108 11.7654C29.1428 11.7654 25.02 15.8882 25.02 20.9562ZM41.136 20.9562C41.136 24.775 38.0297 27.8819 34.2108 27.8819C30.392 27.8819 27.2856 24.775 27.2856 20.9562C27.2856 17.1374 30.392 14.031 34.2108 14.031C38.0297 14.031 41.136 17.1378 41.136 20.9562Z" fill="white"/>
<path d="M32.4462 19.9101C32.0037 19.4676 31.2868 19.4676 30.8443 19.9101C30.4018 20.3522 30.4018 21.0695 30.8443 21.512L32.844 23.5117C33.0653 23.7329 33.3551 23.8435 33.6449 23.8435C33.9348 23.8435 34.2246 23.7329 34.4459 23.5117L37.9549 20.0026C38.397 19.5605 38.397 18.8432 37.9549 18.4007C37.5124 17.9582 36.7951 17.9582 36.3526 18.4007L33.6449 21.1084L32.4462 19.9101Z" fill="white"/>
</svg>
