<svg width="75" height="75" viewBox="0 0 75 75" fill="none" xmlns="http://www.w3.org/2000/svg">
<path d="M59.4727 67.3472H52.2663L50.8015 62.9526H24.1985L22.7337 67.3472H15.5273C14.3131 67.3472 13.3301 68.3302 13.3301 69.5444C13.3301 70.7587 14.3131 71.7417 15.5273 71.7417H59.4727C60.6869 71.7417 61.6699 70.7587 61.6699 69.5444C61.6699 68.3302 60.6869 67.3472 59.4727 67.3472Z" fill="white"/>
<path d="M59.4727 15.5273C58.2602 15.5273 57.2754 16.5121 57.2754 17.7246C57.2754 18.9371 58.2602 19.9219 59.4727 19.9219C60.6852 19.9219 61.6699 18.9371 61.6699 17.7246C61.6699 16.5121 60.6852 15.5273 59.4727 15.5273Z" fill="white"/>
<path d="M68.2617 2.34375H6.5918C2.95715 2.34375 0 5.3009 0 8.93555V46.2891H13.3301V39.6973C13.3301 38.483 14.3131 37.5 15.5273 37.5H18.9222C19.1494 36.8608 19.4092 36.2337 19.7033 35.618L17.3018 33.2148C16.4434 32.3565 16.4434 30.966 17.3018 30.1077L23.5159 23.8935C24.3742 23.0352 25.7647 23.0352 26.623 23.8935L29.0262 26.2968C29.6419 26.0027 30.2685 25.7412 30.9082 25.5135V22.1191C30.9082 20.9049 31.8913 19.9219 33.1055 19.9219H41.8945C43.1087 19.9219 44.0918 20.9049 44.0918 22.1191V25.514C44.7309 25.7412 45.3581 26.0033 45.9738 26.2968L48.377 23.8935C49.2353 23.0358 50.6258 23.0358 51.4841 23.8935L57.6982 30.1077C58.5566 30.966 58.5566 32.357 57.6982 33.2148L55.2967 35.618C55.5908 36.2343 55.8506 36.8608 56.0778 37.5H59.4727C60.6869 37.5 61.6699 38.483 61.6699 39.6973V46.2891H75V8.93555C75 5.3009 71.8964 2.34375 68.2617 2.34375ZM59.4727 24.3164C55.838 24.3164 52.8809 21.3593 52.8809 17.7246C52.8809 14.09 55.838 11.1328 59.4727 11.1328C63.1073 11.1328 66.0645 14.09 66.0645 17.7246C66.0645 21.3593 63.1073 24.3164 59.4727 24.3164Z" fill="white"/>
<path d="M30.9082 44.0918C30.9082 44.8511 31.0833 45.5835 31.3345 46.2891H43.6655C43.9167 45.5835 44.0918 44.8511 44.0918 44.0918C44.0918 40.4572 41.1346 37.5 37.5 37.5C33.8648 37.5 30.9082 40.4572 30.9082 44.0918Z" fill="white"/>
<path d="M22.6725 40.2466C22.4218 41.2165 21.5464 41.8945 20.5439 41.8945H17.7246V46.2891H26.8026C26.655 45.5652 26.5137 44.838 26.5137 44.0918C26.5137 38.0344 31.4426 33.1055 37.5 33.1055C43.5574 33.1055 48.4863 38.0344 48.4863 44.0918C48.4863 44.838 48.345 45.5652 48.1974 46.2891H57.2754V41.8945H54.4561C53.4536 41.8945 52.5782 41.2165 52.3275 40.2466C51.9773 38.8842 51.4303 37.5664 50.7008 36.3304C50.1921 35.4681 50.3317 34.3695 51.0395 33.6611L53.0376 31.6612L49.9306 28.5542L47.9307 30.554C47.2223 31.2647 46.1214 31.406 45.2591 30.891C44.0254 30.1638 42.7099 29.6144 41.3452 29.2643C40.3753 29.0136 39.6973 28.1382 39.6973 27.1357V24.3164H35.3027V27.1357C35.3027 28.1382 34.6247 29.0136 33.6548 29.2643C32.2901 29.6144 30.9746 30.1638 29.7409 30.891C28.8826 31.406 27.7794 31.2647 27.0693 30.554L25.0694 28.5542L21.9624 31.6612L23.9605 33.6611C24.6683 34.3695 24.8079 35.4681 24.2992 36.3304C23.5697 37.5664 23.0227 38.8842 22.6725 40.2466Z" fill="white"/>
<path d="M0 51.9663C0 55.601 2.95715 58.5581 6.5918 58.5581H68.2617C71.8964 58.5581 75 55.601 75 51.9663V49.769H0V51.9663Z" fill="white"/>
<rect x="10.3746" y="10.5908" width="56.8444" height="35.6628" fill="white"/>
<g clip-path="url(#clip0)">
<path d="M36.6464 15.6128V26.5125H43.4153V24.5961H38.5137V15.6128H36.6464Z" fill="#0090D2"/>
<path d="M54.8778 24.3527C54.8778 15.2195 47.628 7.79102 38.7291 7.79102C30.7471 7.79102 24.1036 13.816 22.8185 21.6015H20.2264L24.6965 29.5068L29.2975 21.6015H26.6181C27.8442 15.8522 32.8147 11.6239 38.7377 11.6239C45.5772 11.6239 51.1433 17.334 51.1433 24.3535C51.1433 30.4193 46.9164 35.5061 41.4313 36.7769V40.6841C49.0171 39.365 54.8778 32.5445 54.8778 24.3527Z" fill="#0090D2"/>
<path d="M22.9681 38.9516L24.1555 37.656C24.9271 36.7942 25.4565 36.1492 25.7438 35.7121C26.0311 35.275 26.1748 34.7743 26.1748 34.2051C26.1748 33.3596 25.9045 32.695 25.364 32.2081C24.8236 31.7217 24.0712 31.4785 23.1067 31.4785C22.1984 31.4785 21.4691 31.7689 20.9186 32.3481C20.368 32.9276 20.1027 33.6505 20.1229 34.4836L20.135 34.5375H22.1242C22.1242 34.0584 22.2116 33.7694 22.3864 33.5033C22.5612 33.2371 22.8013 33.096 23.1068 33.096C23.4483 33.096 23.7045 33.1949 23.8752 33.4013C24.0461 33.6074 24.1314 33.8816 24.1314 34.2282C24.1314 34.4715 24.047 34.757 23.8783 35.0869C23.7095 35.417 23.4662 35.7917 23.1088 36.2126L20.3076 39.2557V40.6462H26.3763V38.9694H22.9862L22.9681 38.9516Z" fill="#0090D2"/>
<path d="M31.9781 31.6625H29.9942V31.6274L26.4519 37.4463L26.5504 38.7294H29.9942V40.6458H31.9781V38.7294H32.9118V37.1723H31.9781V31.6625ZM29.9942 37.1723H28.2503L29.7574 34.5989L29.936 34.3283L29.9942 34.3248V37.1723Z" fill="#0090D2"/>
<path d="M39.564 40.646V36.7685C39.564 36.4803 39.571 36.2159 39.54 35.9708C39.4613 35.3527 39.2981 34.8685 39.0221 34.5229C38.6361 34.0403 38.1119 33.7991 37.4367 33.7991C37.0951 33.7991 36.8079 33.8826 36.5246 34.0497C36.2412 34.2167 35.9462 34.4509 35.8295 34.7519V31.543H33.7288V40.646H35.8295V35.7477C35.8295 35.6405 36.0242 35.5571 36.1691 35.4972C36.3136 35.4375 36.4733 35.4076 36.6702 35.4076C36.9797 35.4076 37.2066 35.5045 37.3573 35.6981C37.508 35.8921 37.58 36.2447 37.58 36.7563V40.646H38.2896H39.564Z" fill="#0090D2"/>
</g>
<defs>
<clipPath id="clip0">
<rect x="20.1219" y="6.40234" width="34.7561" height="35.6707" fill="white"/>
</clipPath>
</defs>
</svg>
