<svg width="60" height="60" viewBox="0 0 60 60" fill="none" xmlns="http://www.w3.org/2000/svg">
<path d="M47.5781 53.877H41.813L40.6412 50.3613H19.3588L18.187 53.877H12.4219C11.4505 53.877 10.6641 54.6634 10.6641 55.6348C10.6641 56.6061 11.4505 57.3926 12.4219 57.3926H47.5781C48.5495 57.3926 49.3359 56.6061 49.3359 55.6348C49.3359 54.6634 48.5495 53.877 47.5781 53.877Z" fill="#0090D2"/>
<path d="M47.5781 12.4219C46.6081 12.4219 45.8203 13.2097 45.8203 14.1797C45.8203 15.1497 46.6081 15.9375 47.5781 15.9375C48.5481 15.9375 49.3359 15.1497 49.3359 14.1797C49.3359 13.2097 48.5481 12.4219 47.5781 12.4219Z" fill="white"/>
<path d="M54.6094 1.875H5.27344C2.36572 1.875 0 4.24072 0 7.14844V37.0312H10.6641V31.7578C10.6641 30.7864 11.4505 30 12.4219 30H15.1378C15.3195 29.4887 15.5273 28.987 15.7626 28.4944L13.8414 26.5718C13.1548 25.8852 13.1548 24.7728 13.8414 24.0862L18.8127 19.1148C19.4994 18.4282 20.6117 18.4282 21.2984 19.1148L23.221 21.0374C23.7135 20.8022 24.2148 20.593 24.7266 20.4108V17.6953C24.7266 16.7239 25.513 15.9375 26.4844 15.9375H33.5156C34.487 15.9375 35.2734 16.7239 35.2734 17.6953V20.4112C35.7848 20.593 36.2865 20.8026 36.779 21.0374L38.7016 19.1148C39.3883 18.4286 40.5006 18.4286 41.1873 19.1148L46.1586 24.0862C46.8452 24.7728 46.8452 25.8856 46.1586 26.5718L44.2374 28.4944C44.4727 28.9874 44.6805 29.4887 44.8622 30H47.5781C48.5495 30 49.3359 30.7864 49.3359 31.7578V37.0312H60V7.14844C60 4.24072 57.5171 1.875 54.6094 1.875ZM47.5781 19.4531C44.6704 19.4531 42.3047 17.0874 42.3047 14.1797C42.3047 11.272 44.6704 8.90625 47.5781 8.90625C50.4858 8.90625 52.8516 11.272 52.8516 14.1797C52.8516 17.0874 50.4858 19.4531 47.5781 19.4531Z" fill="#00558C"/>
<path d="M24.7266 35.2734C24.7266 35.8809 24.8666 36.4668 25.0676 37.0312H34.9324C35.1334 36.4668 35.2734 35.8809 35.2734 35.2734C35.2734 32.3657 32.9077 30 30 30C27.0918 30 24.7266 32.3657 24.7266 35.2734Z" fill="white"/>
<path d="M18.138 32.1973C17.9375 32.9732 17.2371 33.5156 16.4351 33.5156H14.1797V37.0312H21.4421C21.324 36.4522 21.2109 35.8704 21.2109 35.2734C21.2109 30.4276 25.1541 26.4844 30 26.4844C34.8459 26.4844 38.7891 30.4276 38.7891 35.2734C38.7891 35.8704 38.676 36.4522 38.5579 37.0312H45.8203V33.5156H43.5649C42.7629 33.5156 42.0625 32.9732 41.862 32.1973C41.5819 31.1073 41.1443 30.0531 40.5606 29.0643C40.1537 28.3745 40.2654 27.4956 40.8316 26.9289L42.4301 25.329L39.9445 22.8433L38.3446 24.4432C37.7779 25.0117 36.8971 25.1248 36.2073 24.7128C35.2203 24.131 34.1679 23.6916 33.0762 23.4114C32.3003 23.2109 31.7578 22.5105 31.7578 21.7085V19.4531H28.2422V21.7085C28.2422 22.5105 27.6997 23.2109 26.9238 23.4114C25.8321 23.6916 24.7797 24.131 23.7927 24.7128C23.1061 25.1248 22.2235 25.0117 21.6554 24.4432L20.0555 22.8433L17.5699 25.329L19.1684 26.9289C19.7346 27.4956 19.8463 28.3745 19.4394 29.0643C18.8557 30.0531 18.4181 31.1073 18.138 32.1973Z" fill="white"/>
<path d="M0 41.5723C0 44.48 2.36572 46.8457 5.27344 46.8457H54.6094C57.5171 46.8457 60 44.48 60 41.5723V39.8145H0V41.5723Z" fill="#0090D2"/>
<rect x="8.29971" y="8.47266" width="45.4755" height="28.5303" fill="#00558C"/>
<g clip-path="url(#clip0)">
<path d="M29.3172 12.4902V21.21H34.7323V19.6768H30.811V12.4902H29.3172Z" fill="white"/>
<path d="M43.9024 19.4817C43.9024 12.1752 38.1025 6.23242 30.9833 6.23242C24.5978 6.23242 19.283 11.0524 18.2549 17.2808H16.1812L19.7573 23.605L23.4381 17.2808H21.2945C22.2754 12.6814 26.2518 9.29871 30.9902 9.29871C36.4619 9.29871 40.9147 13.8668 40.9147 19.4824C40.9147 24.335 37.5332 28.4044 33.1451 29.4211V32.5469C39.2138 31.4916 43.9024 26.0352 43.9024 19.4817Z" fill="white"/>
<path d="M18.3745 31.1601L19.3245 30.1236C19.9417 29.4342 20.3652 28.9182 20.5951 28.5685C20.8249 28.2188 20.9399 27.8183 20.9399 27.3629C20.9399 26.6865 20.7236 26.1548 20.2913 25.7653C19.8589 25.3762 19.257 25.1816 18.4854 25.1816C17.7587 25.1816 17.1753 25.4139 16.7349 25.8773C16.2944 26.3409 16.0822 26.9193 16.0983 27.5857L16.1081 27.6288H17.6994C17.6994 27.2455 17.7693 27.0143 17.9091 26.8015C18.049 26.5885 18.2411 26.4756 18.4855 26.4756C18.7587 26.4756 18.9636 26.5548 19.1002 26.7199C19.2369 26.8848 19.3051 27.1041 19.3051 27.3814C19.3051 27.576 19.2376 27.8045 19.1026 28.0684C18.9676 28.3324 18.773 28.6322 18.4871 28.9689L16.2461 31.4034V32.5158H21.1011V31.1743H18.389L18.3745 31.1601Z" fill="white"/>
<path d="M25.5825 25.3308H23.9953V25.3027L21.1615 29.9578L21.2403 30.9843H23.9953V32.5174H25.5825V30.9843H26.3294V29.7386H25.5825V25.3308ZM23.9953 29.7386H22.6003L23.8059 27.6799L23.9488 27.4634L23.9953 27.4606V29.7386Z" fill="white"/>
<path d="M31.6513 32.5168V29.4148C31.6513 29.1842 31.6569 28.9728 31.632 28.7766C31.5691 28.2822 31.4385 27.8948 31.2177 27.6183C30.9089 27.2323 30.4895 27.0393 29.9494 27.0393C29.6761 27.0393 29.4464 27.1061 29.2197 27.2397C28.993 27.3734 28.757 27.5607 28.6636 27.8015V25.2344H26.983V32.5168H28.6636V28.5982C28.6636 28.5124 28.8194 28.4456 28.9353 28.3977C29.0509 28.35 29.1787 28.3261 29.3362 28.3261C29.5838 28.3261 29.7653 28.4036 29.8858 28.5585C30.0065 28.7137 30.0641 28.9958 30.0641 29.405V32.5168H30.6317H31.6513Z" fill="white"/>
</g>
<defs>
<clipPath id="clip0">
<rect x="16.0976" y="5.12109" width="27.8049" height="28.5366" fill="white"/>
</clipPath>
</defs>
</svg>
