<svg width="134" height="43" viewBox="0 0 134 43" fill="none" xmlns="http://www.w3.org/2000/svg">
<path d="M59.053 0.719971V0.931834C58.1506 1.21087 57.1243 2.13067 57.1192 3.30884V10.6104C49.9457 11.3545 44.4484 13.5248 38.7137 13.7935C36.2951 13.9072 32.546 13.3594 30.0242 12.4655L30.0345 12.388C30.7926 12.4861 31.7002 12.388 32.4067 12.326C38.296 11.7937 44.6804 10.0781 50.3738 9.33403V3.30367C50.3635 2.13067 49.3372 1.21087 48.4399 0.931834V0.719971H59.053Z" fill="#0090D2"/>
<path d="M67.1702 24.7587V24.9706H77.7834V24.7587C76.8809 24.4797 75.8546 23.5547 75.8495 22.3817V15.5918C78.33 15.075 81.9709 15.6383 85.1837 15.7158C90.4077 15.8553 96.2455 14.6306 96.261 8.46074C96.2816 1.25738 89.8198 1.05068 82.5588 0.719971H67.1651V0.931834C68.0675 1.21087 69.0989 2.13584 69.0989 3.30884V10.1815C62.9518 10.4502 56.8149 11.6852 50.3686 13.0546V22.3921C50.3583 23.5599 49.3321 24.4745 48.4348 24.7536V24.9654H59.0479V24.7536C58.1454 24.4745 57.1192 23.5496 57.114 22.3766V14.4188C62.1266 13.1011 67.3043 12.1399 75.8443 11.7059V3.63439C77.4843 3.52587 79.4285 3.42252 81.089 3.41735C84.8743 3.41219 89.66 3.87725 89.6651 8.44524C89.6703 11.7472 87.6023 12.6722 85.1218 12.8582C83.1931 13.0029 81.1715 12.7032 78.6652 12.7342C75.4369 12.7704 72.1983 13.0597 69.0989 13.9123V22.3869C69.0938 23.5599 68.0675 24.4797 67.1702 24.7587Z" fill="#00558C"/>
<path d="M130.21 41.7984C129.457 41.4418 129.39 40.6874 129.39 40.2688V33.6494C129.745 33.5667 130.127 33.515 130.498 33.515C131.741 33.515 132.479 34.1661 132.479 35.2461C132.479 36.9152 130.952 37.4164 129.895 37.4577C130.225 37.5508 130.632 37.6283 131.014 37.6283C132.494 37.6283 134 36.7446 134 34.9826C134 32.5487 131.437 32.5332 130.71 32.5332H127.435C128.044 32.9569 128.044 33.4892 128.044 33.8561V40.4703C128.044 40.9096 128.028 41.3695 127.435 41.7932H130.21V41.7984ZM121.695 33.422C123.779 33.422 125.218 35.0756 125.218 37.3854C125.218 39.8192 123.346 40.9147 121.639 40.9147C119.555 40.9147 118.111 39.2612 118.111 36.9565C118.116 34.5227 119.994 33.422 121.695 33.422ZM121.664 32.3369C118.338 32.3369 116.59 34.6932 116.59 37.1684C116.59 39.4989 118.199 41.9999 121.664 41.9999C124.991 41.9999 126.734 39.6436 126.734 37.1684C126.739 34.8379 125.13 32.3369 121.664 32.3369ZM114.125 33.5977L115.605 33.5822C115.935 33.5822 116.409 33.5822 116.662 34.0318L117.126 32.4815C116.889 32.5125 116.595 32.5384 116.317 32.5384H111.211C110.866 32.5384 110.68 32.5384 110.36 32.4815L109.834 34.1403C110.319 33.639 110.891 33.5822 111.211 33.5822L112.779 33.5977V40.4807C112.779 40.8527 112.779 41.3798 112.17 41.8035H114.733C114.125 41.3798 114.125 40.8527 114.125 40.4807V33.5977V33.5977ZM106.4 33.7424L107.838 37.3957H104.976L106.4 33.7424ZM105.162 32.5384C105.703 32.7916 105.518 33.2928 105.466 33.422L102.826 40.119C102.578 40.7546 102.31 41.3488 101.624 41.7984H104.125C103.501 41.3643 103.62 40.8217 103.806 40.3567L104.641 38.2794H108.194L109.195 40.7701C109.313 41.0749 109.416 41.5245 108.798 41.7984H111.639C110.989 41.4573 110.732 40.9561 110.515 40.4342L107.333 32.5332H105.162V32.5384ZM99.0715 41.7984C98.3186 41.4418 98.2515 40.6874 98.2515 40.2688V33.6494C98.6074 33.5667 98.9941 33.515 99.3603 33.515C100.603 33.515 101.346 34.1661 101.346 35.2461C101.346 36.9152 99.8141 37.4164 98.7569 37.4577C99.087 37.5508 99.4944 37.6283 99.8811 37.6283C101.361 37.6283 102.867 36.7446 102.867 34.9826C102.867 32.5487 100.304 32.5332 99.5769 32.5332H96.3022C96.9107 32.9569 96.9107 33.4892 96.9107 33.8561V40.4703C96.9107 40.9096 96.8952 41.3695 96.3022 41.7932H99.0715V41.7984ZM93.3266 33.5977L94.8066 33.5822C95.1315 33.5822 95.606 33.5822 95.8587 34.0318L96.3228 32.4815C96.0856 32.5125 95.7916 32.5384 95.5183 32.5384H90.4026C90.0622 32.5384 89.8765 32.5384 89.5568 32.4815L89.0308 34.1403C89.5207 33.639 90.088 33.5822 90.4026 33.5822L91.9754 33.5977V40.4807C91.9754 40.8527 91.9754 41.3798 91.3669 41.8035H93.93C93.3266 41.3798 93.3266 40.8527 93.3266 40.4807V33.5977V33.5977ZM88.9689 32.6986C88.6801 32.6572 88.4945 32.6159 88.2314 32.5539C87.7983 32.4609 87.3187 32.342 86.5142 32.342C83.1724 32.342 81.3778 34.6984 81.3778 37.2407C81.3778 39.2922 82.6051 42.0051 86.5657 42.0051C87.4373 42.0051 88.0974 41.9276 88.8812 41.6743L89.7786 39.9019C89.3815 40.2326 88.4996 40.8786 86.674 40.8786C84.013 40.8786 82.8991 38.8168 82.8991 36.8842C82.8991 34.6208 84.6319 33.4737 86.3595 33.4737C87.7467 33.4737 88.7265 34.1506 88.9741 34.3211V32.6986H88.9689ZM73.6113 40.0673V33.8612C73.6113 33.422 73.6268 32.9621 74.2147 32.5384H71.6568C72.2498 32.9621 72.2602 33.422 72.2602 33.8612V40.4755C72.2602 40.9147 72.2447 41.3746 71.6568 41.7984H73.5288C73.7248 41.6537 73.833 41.5245 73.9878 41.2816L78.691 34.2695V40.4755C78.691 40.9147 78.6806 41.3746 78.0824 41.7984H80.6455C80.0524 41.3746 80.0369 40.9147 80.0369 40.4755V33.8612C80.0369 33.422 80.0524 32.9621 80.6455 32.5384H78.7735C78.5723 32.6831 78.4692 32.8174 78.3093 33.0551L73.6113 40.0673ZM65.7933 32.5384C66.3966 32.9621 66.3966 33.515 66.3966 33.8612V40.4755C66.3966 40.8217 66.3966 41.3746 65.7933 41.7984H68.4233C67.7735 41.3901 67.7478 40.8734 67.7478 40.4755V33.6494C68.1706 33.639 68.9494 33.5977 69.5579 33.5977C70.5893 33.5977 71.0895 33.6649 71.4453 34.1403V32.497C71.3009 32.5229 71.1411 32.5384 70.9709 32.5384H65.7933ZM59.2026 32.5384C59.8111 32.9621 59.8111 33.515 59.8111 33.8612V40.4755C59.8111 40.8217 59.8111 41.3746 59.2026 41.7984H64.9578L65.6282 39.9329C65.0455 40.4497 64.3235 40.739 62.8692 40.739C62.6062 40.739 61.9616 40.7287 61.1519 40.646V37.3234H62.5289C62.993 37.3234 63.2818 37.4164 63.5345 37.6696V36.2279C63.3901 36.2537 63.2302 36.2692 63.06 36.2692H61.1571V33.6235L62.9414 33.5822C63.7201 33.5667 64.076 33.7682 64.3287 34.0576V32.5332H59.2026V32.5384ZM54.8036 41.7984C54.0507 41.4418 53.9837 40.6874 53.9837 40.2688V33.6494C54.3395 33.5667 54.7211 33.515 55.0924 33.515C56.3353 33.515 57.0779 34.1661 57.0779 35.2461C57.0779 36.9152 55.5463 37.4164 54.4891 37.4577C54.8191 37.5508 55.2265 37.6283 55.6081 37.6283C57.0882 37.6283 58.5941 36.7446 58.5941 34.9826C58.5941 32.5487 56.031 32.5332 55.3039 32.5332H52.0292C52.6377 32.9569 52.6377 33.4892 52.6377 33.8561V40.4703C52.6377 40.9096 52.6274 41.3695 52.0292 41.7932H54.8036V41.7984ZM41.7564 30.0374C41.7203 31.0812 42.566 31.9183 43.7367 31.9183C44.9125 31.9183 45.7582 31.0863 45.717 30.0374H44.5566C44.9537 30.6213 44.3194 31.107 43.7367 31.107C43.1591 31.107 42.5196 30.6161 42.9219 30.0374H41.7564ZM41.1891 40.0673V33.8612C41.1891 33.422 41.2046 32.9621 41.7925 32.5384H39.2294C39.8277 32.9621 39.838 33.422 39.838 33.8612V40.4755C39.838 40.9147 39.8277 41.3746 39.2294 41.7984H41.1066C41.3077 41.6537 41.4109 41.5245 41.5656 41.2816L46.2688 34.2695V40.4755C46.2688 40.9147 46.2585 41.3746 45.6654 41.7984H48.2233C47.6302 41.3746 47.6199 40.9147 47.6199 40.4755V33.8612C47.6199 33.422 47.6302 32.9621 48.2233 32.5384H46.3513C46.1502 32.6831 46.047 32.8174 45.8872 33.0551L41.1891 40.0673ZM35.8929 32.5384C36.5014 32.9621 36.5014 33.4943 36.5014 33.8612V40.4755C36.5014 40.8476 36.5014 41.3746 35.8929 41.7984H38.4559C37.8474 41.3746 37.8474 40.8476 37.8474 40.4755V33.8612C37.8474 33.4892 37.8474 32.9621 38.4559 32.5384H35.8929ZM30.0964 37.065C30.5605 37.0133 30.9576 36.9875 31.2206 36.9875C31.7879 36.9875 33.7063 36.9875 33.7063 38.7754C33.7063 39.2095 33.6392 40.7959 31.4733 40.7959C30.9731 40.7959 30.4677 40.7442 30.0964 40.677V37.065ZM28.1419 32.5384C28.7504 32.9621 28.7504 33.4943 28.7504 33.8612V40.4755C28.7504 40.8476 28.7504 41.3746 28.1419 41.7984H31.3495C32.1437 41.7984 35.2224 41.7312 35.2224 38.7858C35.2224 36.972 33.9641 35.9799 31.8291 35.9799C31.3237 35.9799 30.545 36.0419 30.0964 36.0884V33.8664C30.0964 33.4943 30.0964 32.9673 30.7049 32.5435H28.1419V32.5384ZM22.5207 37.1425C23.2478 37.0909 23.5057 37.0909 23.6191 37.0909C25.6768 37.0909 26.1255 38.2432 26.1255 39.008C26.1255 39.5764 25.914 40.8217 23.8925 40.8217C23.4026 40.8217 22.8765 40.7545 22.5207 40.7029V37.1425ZM22.5207 33.5305C22.8198 33.4892 23.2839 33.453 23.5573 33.453C24.764 33.453 25.2642 34.0576 25.2642 34.7604C25.2642 35.5251 24.6299 36.2692 23.2478 36.2434L22.5207 36.2279V33.5305ZM20.561 32.5384C21.1696 32.9621 21.1696 33.4943 21.1696 33.8612V40.4755C21.1696 40.8476 21.1696 41.3746 20.561 41.7984H23.7739C26.997 41.7984 27.6416 40.0931 27.6416 38.915C27.6416 37.5249 26.6927 36.5741 25.3725 36.4294C25.8728 36.2434 26.7701 35.7267 26.7701 34.5485C26.7701 33.2515 25.6716 32.4454 24.1194 32.4712L20.561 32.5384ZM14.8213 33.422C16.9047 33.422 18.3435 35.0756 18.3435 37.3854C18.3435 39.8192 16.4715 40.9147 14.7645 40.9147C12.6811 40.9147 11.2423 39.2612 11.2423 36.9565C11.2423 34.5227 13.1143 33.422 14.8213 33.422ZM14.7903 32.3369C11.4641 32.3369 9.72098 34.6932 9.72098 37.1684C9.72098 39.4989 11.33 41.9999 14.7903 41.9999C18.1218 41.9999 19.8648 39.6436 19.8648 37.1684C19.8648 34.8379 18.2507 32.3369 14.7903 32.3369ZM1.95451 36.1866V33.8612C1.95451 33.422 1.96482 32.9621 2.55788 32.5384H0C0.593057 32.9621 0.608528 33.422 0.608528 33.8612V40.4755C0.608528 40.9147 0.593057 41.3746 0 41.7984H2.55788C1.96482 41.3746 1.95451 40.9147 1.95451 40.4755V37.251H7.03933V40.4807C7.03933 40.9199 7.02386 41.3798 6.4308 41.8035H8.99384C8.40079 41.3798 8.39047 40.9199 8.39047 40.4807V33.8664C8.39047 33.4272 8.40079 32.9673 8.99384 32.5435H6.4308C7.02386 32.9673 7.03933 33.4272 7.03933 33.8664V36.1917H1.95451V36.1866Z" fill="#00558C"/>
</svg>
