<svg width="25" height="33" viewBox="0 0 25 33" fill="none" xmlns="http://www.w3.org/2000/svg">
<path d="M12.5002 0C19.24 0 24.7231 5.36134 24.7231 11.9513C24.7231 20.1296 13.7848 32.1359 13.3191 32.643C12.8816 33.1194 12.1179 33.1185 11.6813 32.643C11.2156 32.1359 0.277205 20.1296 0.277205 11.9513C0.277336 5.36134 5.76046 0 12.5002 0ZM12.5002 17.9643C15.8911 17.9643 18.6498 15.2669 18.6498 11.9513C18.6498 8.63569 15.8911 5.93832 12.5002 5.93832C9.10929 5.93832 6.35062 8.63575 6.35062 11.9513C6.35062 15.2669 9.10929 17.9643 12.5002 17.9643Z" fill="#607286" fill-opacity="0.3"/>
</svg>
