<svg width="13" height="17" viewBox="0 0 13 17" fill="none" xmlns="http://www.w3.org/2000/svg">
<path d="M6.65009 0.186035C10.1514 0.186035 13 2.91772 13 6.27541C13 10.4424 7.31745 16.5598 7.07551 16.8182C6.84826 17.0609 6.4515 17.0605 6.22466 16.8182C5.98272 16.5598 0.300173 10.4424 0.300173 6.27541C0.300241 2.91772 3.14876 0.186035 6.65009 0.186035ZM6.65009 9.33914C8.41171 9.33914 9.84485 7.96476 9.84485 6.27541C9.84485 4.58606 8.41167 3.21171 6.65009 3.21171C4.8885 3.21171 3.45535 4.58609 3.45535 6.27544C3.45535 7.96479 4.8885 9.33914 6.65009 9.33914Z" fill="#00558C"/>
</svg>
