<svg width="8" height="12" viewBox="0 0 8 12" fill="none" xmlns="http://www.w3.org/2000/svg">
<g clip-path="url(#clip0)">
<path fill-rule="evenodd" clip-rule="evenodd" d="M1.70131 1.77205C1.47952 2.01603 1.35491 2.34694 1.35491 2.69197L1.35491 8.32384C1.35491 8.89886 1.56257 9.45033 1.93221 9.85693C2.30184 10.2635 2.80318 10.492 3.32592 10.492C3.84867 10.492 4.35 10.2635 4.71964 9.85693C5.08927 9.45033 5.29693 8.89886 5.29693 8.32384V2.69197C5.29693 2.45265 5.47331 2.25864 5.69087 2.25864C5.90844 2.25864 6.08481 2.45265 6.08481 2.69197L6.08481 8.32384C6.08481 9.12872 5.79415 9.90062 5.27675 10.4698C4.75936 11.0389 4.05763 11.3586 3.32592 11.3586C2.59422 11.3586 1.89249 11.0389 1.37509 10.4698C0.857701 9.90062 0.567033 9.12872 0.567033 8.32384L0.567032 2.69197C0.567032 2.11708 0.774645 1.56574 1.1442 1.15923C1.51375 0.752718 2.01498 0.524343 2.53761 0.524343C3.06023 0.524343 3.56146 0.752718 3.93101 1.15923C4.30057 1.56574 4.50818 2.11708 4.50818 2.69197L4.50539 8.32691C4.50539 8.67182 4.38084 9.0026 4.15912 9.24649C3.9374 9.49038 3.63669 9.62739 3.32314 9.62739C3.00958 9.62739 2.70887 9.49037 2.48716 9.24649C2.26544 9.0026 2.14088 8.67182 2.14088 8.32691L2.14367 3.12682C2.14379 2.8875 2.32027 2.69361 2.53784 2.69375C2.7554 2.69389 2.93167 2.88801 2.93154 3.12734L2.92876 8.32691C2.92882 8.44187 2.97036 8.55236 3.04427 8.63366C3.11823 8.71502 3.21854 8.76072 3.32314 8.76072C3.42773 8.76072 3.52804 8.71502 3.602 8.63366C3.67596 8.55231 3.71751 8.44196 3.71751 8.32691L3.7203 2.69197C3.72024 2.34702 3.59564 2.01598 3.3739 1.77205C3.1521 1.52808 2.85128 1.39101 2.53761 1.39101C2.22394 1.39101 1.92311 1.52808 1.70131 1.77205Z" fill="#706C71"/>
</g>
<defs>
<clipPath id="clip0">
<rect width="8" height="12" fill="white"/>
</clipPath>
</defs>
</svg>
