<svg width="12" height="17" viewBox="0 0 12 17" fill="none" xmlns="http://www.w3.org/2000/svg">
<g clip-path="url(#clip0)">
<path fill-rule="evenodd" clip-rule="evenodd" d="M2.55215 2.12683C2.21946 2.4928 2.03255 2.98916 2.03255 3.50671L2.03255 11.9545C2.03255 12.817 2.34404 13.6442 2.8985 14.2541C3.45295 14.864 4.20495 15.2067 4.98907 15.2067C5.77319 15.2067 6.52519 14.864 7.07964 14.2541C7.6341 13.6442 7.94559 12.817 7.94558 11.9545L7.94558 3.50671C7.94558 3.14773 8.21014 2.85671 8.53649 2.85671C8.86284 2.85671 9.1274 3.14773 9.1274 3.50671L9.1274 11.9545C9.1274 13.1618 8.6914 14.3197 7.91531 15.1734C7.13923 16.0271 6.08662 16.5067 4.98907 16.5067C3.89151 16.5067 2.83891 16.0271 2.06282 15.1734C1.28674 14.3197 0.850733 13.1618 0.850733 11.9545L0.850732 3.50671C0.850731 2.64437 1.16215 1.81736 1.71648 1.20759C2.27081 0.597828 3.02265 0.255266 3.80659 0.255265C4.59053 0.255266 5.34237 0.597828 5.8967 1.20759C6.45103 1.81736 6.76245 2.64437 6.76245 3.50671L6.75827 11.9591C6.75827 12.4765 6.57144 12.9726 6.23886 13.3385C5.90629 13.7043 5.45522 13.9098 4.98489 13.9098C4.51456 13.9098 4.06349 13.7043 3.73092 13.3385C3.39834 12.9726 3.21151 12.4765 3.21151 11.9591L3.21568 4.15899C3.21587 3.8 3.48059 3.50916 3.80694 3.50937C4.13329 3.50958 4.39769 3.80077 4.3975 4.15975L4.39332 11.9591C4.39342 12.1316 4.45573 12.2973 4.56659 12.4192C4.67753 12.5413 4.828 12.6098 4.98489 12.6098C5.14178 12.6098 5.29225 12.5413 5.40319 12.4192C5.51413 12.2972 5.57646 12.1317 5.57646 11.9591L5.58063 3.50671C5.58055 2.98928 5.39365 2.49271 5.06103 2.12683C4.72833 1.76086 4.2771 1.55527 3.80659 1.55527C3.33609 1.55527 2.88485 1.76086 2.55215 2.12683Z" fill="white"/>
</g>
<defs>
<clipPath id="clip0">
<rect width="12" height="17" fill="white"/>
</clipPath>
</defs>
</svg>
