<svg width="12" height="17" viewBox="0 0 12 17" fill="none" xmlns="http://www.w3.org/2000/svg">
<g clip-path="url(#clip0)">
<path fill-rule="evenodd" clip-rule="evenodd" d="M2.55209 2.12683C2.2194 2.4928 2.03249 2.98916 2.03249 3.50671L2.03249 11.9545C2.03249 12.817 2.34398 13.6442 2.89843 14.2541C3.45289 14.864 4.20489 15.2067 4.98901 15.2067C5.77312 15.2067 6.52513 14.864 7.07958 14.2541C7.63404 13.6442 7.94552 12.817 7.94552 11.9545L7.94552 3.50671C7.94552 3.14773 8.21008 2.85671 8.53643 2.85671C8.86278 2.85671 9.12734 3.14773 9.12734 3.50671L9.12734 11.9545C9.12734 13.1618 8.69134 14.3197 7.91525 15.1734C7.13916 16.0271 6.08656 16.5067 4.98901 16.5067C3.89145 16.5067 2.83885 16.0271 2.06276 15.1734C1.28667 14.3197 0.850672 13.1618 0.850672 11.9545L0.850671 3.50671C0.85067 2.64437 1.16209 1.81736 1.71642 1.20759C2.27075 0.597828 3.02259 0.255266 3.80653 0.255265C4.59047 0.255266 5.34231 0.597828 5.89664 1.20759C6.45097 1.81736 6.76239 2.64437 6.76239 3.50671L6.75821 11.9591C6.75821 12.4765 6.57138 12.9726 6.2388 13.3385C5.90623 13.7043 5.45516 13.9098 4.98483 13.9098C4.5145 13.9098 4.06343 13.7043 3.73086 13.3385C3.39828 12.9726 3.21144 12.4765 3.21144 11.9591L3.21562 4.15899C3.21581 3.8 3.48053 3.50916 3.80688 3.50937C4.13323 3.50958 4.39763 3.80077 4.39744 4.15975L4.39326 11.9591C4.39335 12.1316 4.45567 12.2973 4.56653 12.4192C4.67747 12.5413 4.82794 12.6098 4.98483 12.6098C5.14172 12.6098 5.29219 12.5413 5.40313 12.4192C5.51407 12.2972 5.57639 12.1317 5.57639 11.9591L5.58057 3.50671C5.58049 2.98928 5.39359 2.49271 5.06097 2.12683C4.72827 1.76086 4.27704 1.55527 3.80653 1.55527C3.33602 1.55527 2.88479 1.76086 2.55209 2.12683Z" fill="#0090D2"/>
</g>
<defs>
<clipPath id="clip0">
<rect width="12" height="17" fill="white"/>
</clipPath>
</defs>
</svg>
