<svg width="17" height="17" viewBox="0 0 17 17" fill="none" xmlns="http://www.w3.org/2000/svg">
<path d="M16.966 7.27689C16.907 7.15138 16.7812 7.07108 16.6419 7.07108H15.5832C14.9101 3.41833 11.7026 0.641602 7.85817 0.641602C3.52544 0.641602 0 4.16704 0 8.49977C0 12.8325 3.52507 16.3576 7.85817 16.3576C10.6544 16.3576 13.2622 14.8526 14.6638 12.4307C14.8613 12.0889 14.7448 11.6523 14.4027 11.4545C14.0612 11.2566 13.6243 11.3731 13.4272 11.7149C12.2799 13.6973 10.1459 14.9293 7.85817 14.9293C4.31321 14.9293 1.42869 12.0451 1.42869 8.5005C1.42869 4.95517 4.31321 2.07102 7.85817 2.07102C10.9116 2.07102 13.4699 4.21261 14.1216 7.07144H13.0713C12.932 7.07144 12.8065 7.15174 12.7472 7.27725C12.6882 7.40276 12.7074 7.55069 12.7964 7.65739L14.5824 9.80043C14.6504 9.88181 14.7506 9.92883 14.857 9.92883C14.9629 9.92883 15.0635 9.88145 15.1311 9.80043L16.9172 7.65739C17.0061 7.55033 17.025 7.40239 16.966 7.27689Z" fill="#00558C"/>
<path d="M7.85817 2.42773C7.46356 2.42773 7.14382 2.74747 7.14382 3.14208V7.47663C6.82083 7.70305 6.60815 8.07632 6.60815 8.50022C6.60815 9.18961 7.16914 9.7506 7.85853 9.7506C8.04734 9.7506 8.22529 9.70539 8.38588 9.62979L10.8707 11.0639C10.9836 11.1294 11.1058 11.1601 11.2274 11.1601C11.474 11.1601 11.7142 11.0321 11.8466 10.8028C12.0437 10.4617 11.9269 10.0244 11.5847 9.82728L9.09733 8.39099C9.06406 8.01338 8.86766 7.68352 8.57324 7.47735V3.14208C8.57252 2.74783 8.25242 2.42773 7.85817 2.42773ZM7.85817 9.03553C7.56267 9.03553 7.3225 8.795 7.3225 8.50022C7.3225 8.20508 7.56303 7.96455 7.85817 7.96455C8.15331 7.96455 8.39384 8.20508 8.39384 8.50022C8.39384 8.795 8.15331 9.03553 7.85817 9.03553Z" fill="#00558C"/>
</svg>
