<svg width="27" height="35" viewBox="0 0 27 35" fill="none" xmlns="http://www.w3.org/2000/svg">
<path d="M19.1156 0H0.976875C0.471875 0 0.0625 0.409375 0.0625 1.20375V34.375C0.0625 34.5906 0.471875 35 0.976875 35H26.0231C26.5281 35 26.9375 34.5906 26.9375 34.375V8.11125C26.9375 7.67625 26.8794 7.53625 26.7769 7.43312L19.5044 0.160625C19.4013 0.058125 19.2613 0 19.1156 0Z" fill="#F2F2F2"/>
<path d="M19.4375 0.0944824V7.50011H26.8431L19.4375 0.0944824Z" fill="#E2E5E7"/>
<path d="M8.19609 20.8276C7.97859 20.8276 7.76984 20.757 7.59171 20.6239C6.94109 20.1357 6.85359 19.5926 6.89484 19.2226C7.00859 18.2051 8.26671 17.1401 10.6355 16.0551C11.5755 13.9951 12.4698 11.457 13.003 9.33637C12.3792 7.97888 11.773 6.21763 12.2148 5.1845C12.3698 4.82263 12.563 4.54513 12.9236 4.42513C13.0661 4.37763 13.4261 4.31763 13.5586 4.31763C13.8736 4.31763 14.1505 4.72325 14.3467 4.97325C14.5311 5.20825 14.9492 5.70638 14.1136 9.2245C14.9561 10.9645 16.1498 12.737 17.2936 13.9507C18.113 13.8026 18.818 13.727 19.3923 13.727C20.3711 13.727 20.9642 13.9551 21.2061 14.4251C21.4061 14.8139 21.3242 15.2682 20.9623 15.7751C20.6142 16.262 20.1342 16.5195 19.5748 16.5195C18.8148 16.5195 17.9298 16.0395 16.943 15.0914C15.1698 15.462 13.0992 16.1232 11.4255 16.8551C10.903 17.9639 10.4023 18.857 9.93609 19.512C9.29546 20.4089 8.74296 20.8276 8.19609 20.8276ZM9.85984 17.6239C8.52421 18.3745 7.97984 18.9914 7.94046 19.3389C7.93421 19.3964 7.91734 19.5476 8.20984 19.7714C8.30296 19.742 8.84671 19.4939 9.85984 17.6239ZM18.383 14.8476C18.8923 15.2395 19.0167 15.4376 19.3498 15.4376C19.4961 15.4376 19.913 15.4314 20.1061 15.162C20.1992 15.0314 20.2355 14.9476 20.2498 14.9026C20.173 14.862 20.0711 14.7795 19.5155 14.7795C19.1998 14.7801 18.803 14.7939 18.383 14.8476ZM13.7142 10.7339C13.2673 12.2801 12.6773 13.9495 12.043 15.4614C13.3492 14.9545 14.7692 14.512 16.103 14.1989C15.2592 13.2189 14.4161 11.9951 13.7142 10.7339ZM13.3348 5.44513C13.2736 5.46575 12.5036 6.54325 13.3948 7.45513C13.988 6.13325 13.3617 5.43638 13.3348 5.44513Z" fill="#F15642"/>
<path d="M26.0231 35H0.976875C0.471875 35 0.0625 34.5906 0.0625 34.0856V24.375H26.9375V34.0856C26.9375 34.5906 26.5281 35 26.0231 35Z" fill="#F15642"/>
<path d="M6.86547 33.1249H5.83984V26.8274H7.65109C7.91859 26.8274 8.18359 26.8699 8.44547 26.9555C8.70734 27.0411 8.94234 27.1693 9.15047 27.3399C9.35859 27.5105 9.52672 27.7174 9.65484 27.9593C9.78297 28.2011 9.84734 28.473 9.84734 28.7755C9.84734 29.0949 9.79297 29.3836 9.68484 29.643C9.57672 29.9024 9.42547 30.1205 9.23172 30.2968C9.03797 30.473 8.80422 30.6099 8.53109 30.7068C8.25797 30.8036 7.95547 30.8518 7.62547 30.8518H6.86484V33.1249H6.86547ZM6.86547 27.6049V30.0999H7.80547C7.93047 30.0999 8.05422 30.0786 8.17734 30.0355C8.29984 29.993 8.41234 29.923 8.51484 29.8261C8.61734 29.7293 8.69984 29.5943 8.76234 29.4205C8.82484 29.2468 8.85609 29.0318 8.85609 28.7755C8.85609 28.673 8.84172 28.5543 8.81359 28.4211C8.78484 28.2874 8.72672 28.1593 8.63859 28.0368C8.54984 27.9143 8.42609 27.8118 8.26672 27.7293C8.10734 27.6468 7.89609 27.6055 7.63422 27.6055H6.86547V27.6049Z" fill="white"/>
<path d="M16.1366 29.8011C16.1366 30.3193 16.081 30.7624 15.9697 31.1299C15.8585 31.4974 15.7179 31.8049 15.5466 32.053C15.3754 32.3011 15.1835 32.4961 14.9697 32.6386C14.756 32.7811 14.5497 32.8874 14.3504 32.9593C14.151 33.0305 13.9685 33.0761 13.8035 33.0961C13.6385 33.1149 13.516 33.1249 13.436 33.1249H11.0522V26.8274H12.9491C13.4791 26.8274 13.9447 26.9118 14.346 27.0793C14.7472 27.2468 15.081 27.4711 15.346 27.7499C15.611 28.0286 15.8085 28.3468 15.9397 28.7024C16.071 29.0586 16.1366 29.4249 16.1366 29.8011ZM13.0947 32.373C13.7897 32.373 14.291 32.1511 14.5985 31.7068C14.906 31.2624 15.0597 30.6186 15.0597 29.7755C15.0597 29.5136 15.0285 29.2543 14.966 28.998C14.9029 28.7418 14.7822 28.5099 14.6029 28.3018C14.4235 28.0936 14.1797 27.9255 13.8722 27.7974C13.5647 27.6693 13.166 27.6049 12.676 27.6049H12.0779V32.373H13.0947Z" fill="white"/>
<path d="M18.666 27.6049V29.5874H21.2979V30.288H18.666V33.1249H17.6235V26.8274H21.5623V27.6049H18.666Z" fill="white"/>
</svg>
