<svg width="24" height="24" viewBox="0 0 24 24" fill="none" xmlns="http://www.w3.org/2000/svg">
<path fill-rule="evenodd" clip-rule="evenodd" d="M24 22.1243L17.1745 15.2989C18.3824 13.6995 19.0987 11.708 19.0987 9.54934C19.0987 4.27538 14.8233 0 9.54934 0C4.27538 0 0 4.27538 0 9.54934C0 14.8233 4.27538 19.0987 9.54934 19.0987C11.708 19.0987 13.6995 18.3824 15.2989 17.1745L22.1243 24L24 22.1243ZM16.4461 9.54897C16.4461 13.3579 13.3584 16.4457 9.54939 16.4457C5.74043 16.4457 2.65265 13.3579 2.65265 9.54897C2.65265 5.74 5.74043 2.65222 9.54939 2.65222C13.3584 2.65222 16.4461 5.74 16.4461 9.54897Z" fill="#0090D2"/>
</svg>
