<svg width="20" height="20" viewBox="0 0 20 20" fill="none" xmlns="http://www.w3.org/2000/svg">
<path d="M18 0H2C0.9 0 0 0.9 0 2V18C0 19.1 0.9 20 2 20H18C19.1 20 20 19.1 20 18V2C20 0.9 19.1 0 18 0ZM17 2V5H15C14.4 5 14 5.4 14 6V8H17V11H14V18H11V11H9V8H11V5.5C11 3.6 12.6 2 14.5 2H17Z" fill="#23589E"/>
<rect x="2" y="1" width="16" height="18" rx="3" fill="#F6F7FC"/>
<path d="M18.0096 1.99014C17.3497 1.33009 16.5547 1 15.6251 1H4.37498C3.44538 1 2.65032 1.33009 1.99014 1.99014C1.33009 2.65032 1 3.44534 1 4.37498V15.6249C1 16.5545 1.33009 17.3496 1.99014 18.0098C2.65032 18.6699 3.44538 19 4.37498 19H15.6249C16.5545 19 17.3496 18.6699 18.0095 18.0098C18.6697 17.3496 18.9998 16.5545 18.9998 15.6249V4.37498C18.9997 3.44534 18.6696 2.6502 18.0096 1.99014ZM11.629 3.60139H12.4142V6.78875C12.4142 6.97633 12.4178 7.07792 12.4257 7.09355C12.4336 7.21858 12.4962 7.28101 12.6133 7.28101C12.7696 7.28101 12.9338 7.16001 13.1055 6.91784V3.60139H13.8907V7.93733H13.1055H13.1052V7.46838C12.7849 7.81986 12.4842 7.99582 12.203 7.99582C11.9532 7.99582 11.7852 7.89041 11.6991 7.67944C11.6521 7.5389 11.629 7.32399 11.629 7.03486V3.60139ZM8.66413 5.0077C8.66413 4.55464 8.74618 4.2147 8.91024 3.98821C9.12113 3.69136 9.42573 3.54286 9.82416 3.54286C10.2071 3.54286 10.5118 3.69149 10.7382 3.98821C10.9023 4.21474 10.9844 4.55464 10.9844 5.0077V6.53119C10.9844 6.99997 10.9023 7.33983 10.7382 7.55072C10.5118 7.84773 10.2071 7.99615 9.82416 7.99615C9.42573 7.99615 9.12113 7.8476 8.91024 7.55072C8.74618 7.32415 8.66413 6.98429 8.66413 6.53119V5.0077ZM6.55463 2.11312L7.17577 4.39842L7.77339 2.11312H8.65235L7.5976 5.58188H7.59776V7.93733H6.73059V5.58188C6.64456 5.15222 6.4649 4.53502 6.1915 3.7304C6.01184 3.1913 5.92195 2.92176 5.92195 2.92176L5.64058 2.11312H6.55463ZM16.2111 16.2579C16.133 16.5936 15.967 16.8787 15.7129 17.1133C15.4592 17.3476 15.1644 17.4844 14.8283 17.5236C13.7581 17.6406 12.1485 17.6993 10.0002 17.6993C7.85171 17.6993 6.24235 17.6406 5.17209 17.5236C4.83621 17.4844 4.54134 17.3476 4.28735 17.1133C4.03344 16.8787 3.86749 16.5936 3.78934 16.2579C3.63316 15.6015 3.55505 14.5858 3.55505 13.2109C3.55505 11.8591 3.63316 10.8438 3.78934 10.164C3.86753 9.82022 4.03348 9.53306 4.28735 9.30251C4.54134 9.07195 4.84007 8.93716 5.18387 8.89817C6.24621 8.78082 7.85171 8.72233 10.0002 8.72233C12.1565 8.72233 13.766 8.78098 14.8283 8.89817C15.1644 8.93728 15.4608 9.07191 15.7187 9.30251C15.9766 9.53294 16.1448 9.82005 16.2228 10.164C16.371 10.8124 16.4454 11.8279 16.4454 13.2109C16.4454 14.5857 16.3672 15.6013 16.2111 16.2579Z" fill="#23589E"/>
<path d="M4.51569 11.0425H5.42977V15.9995H6.29694V11.0425H7.23447V10.2222H4.51569V11.0425Z" fill="#23589E"/>
<path d="M8.80487 14.9803C8.63301 15.2223 8.46887 15.3434 8.31269 15.3434C8.2033 15.3434 8.14469 15.2848 8.13689 15.1677C8.12905 15.1521 8.12511 15.0505 8.12511 14.8629V11.6987H7.35168V15.0972C7.35168 15.3941 7.37516 15.6051 7.42208 15.7298C7.49235 15.9486 7.65649 16.0579 7.91426 16.0579C8.2033 16.0579 8.50018 15.8822 8.80487 15.5306V15.9995H9.58991V11.699H8.80487V14.9803Z" fill="#23589E"/>
<path d="M11.8402 11.64C11.5589 11.64 11.2932 11.7962 11.0434 12.1089V10.2222H10.2582V15.9995H11.0434V15.5776C11.301 15.8978 11.567 16.0579 11.8402 16.0579C12.1606 16.0579 12.3675 15.8939 12.461 15.5657C12.5158 15.4017 12.543 15.1165 12.543 14.7103V12.9994C12.543 12.5853 12.5155 12.2962 12.461 12.1322C12.3674 11.8041 12.1605 11.64 11.8402 11.64ZM11.7698 14.769C11.7698 15.1518 11.6566 15.3429 11.4299 15.3432C11.2973 15.3432 11.1682 15.2806 11.0432 15.1556V12.5306C11.1682 12.4059 11.2973 12.3432 11.4299 12.3432C11.6566 12.3432 11.7698 12.5383 11.7698 12.929V14.769Z" fill="#23589E"/>
<path d="M14.6874 14.7634C14.6874 14.8454 14.6854 14.9098 14.6818 14.9567C14.678 15.0036 14.6758 15.031 14.6758 15.0387C14.629 15.2417 14.5118 15.3432 14.3243 15.3432C14.0586 15.3432 13.9258 15.144 13.9258 14.7457V13.9841H15.4844V13.0933C15.4844 12.6403 15.4025 12.3044 15.2383 12.0856C15.0276 11.7888 14.7228 11.6401 14.3243 11.6401C13.9258 11.6401 13.6134 11.7887 13.3867 12.0856C13.2304 12.2965 13.1524 12.6327 13.1524 13.0933V14.6051C13.1524 15.0661 13.2344 15.4021 13.3984 15.6131C13.6251 15.9099 13.9415 16.0585 14.3479 16.0585C14.7619 16.0585 15.0743 15.9023 15.2855 15.5896C15.3791 15.4489 15.438 15.2927 15.4613 15.1209C15.4768 15.0115 15.4846 14.8435 15.4846 14.6169V14.5117V14.5114H14.6876V14.7635H14.6874V14.7634ZM13.926 12.941C13.926 12.5427 14.055 12.3435 14.3128 12.3435C14.5707 12.3435 14.6995 12.5427 14.6995 12.941V13.3397H13.926V12.941Z" fill="#23589E"/>
<path d="M9.82439 7.28073C10.0744 7.28073 10.1993 7.08162 10.1993 6.68319V4.85501C10.1993 4.44886 10.0744 4.24561 9.82439 4.24561C9.57442 4.24561 9.44943 4.44886 9.44943 4.85501V6.68319C9.44943 7.08149 9.57442 7.28073 9.82439 7.28073Z" fill="#23589E"/>
</svg>
