<svg width="20" height="20" viewBox="0 0 20 20" fill="none" xmlns="http://www.w3.org/2000/svg">
<rect width="20" height="20" rx="2" fill="#23589E"/>
<g clip-path="url(#clip0)">
<path d="M4.77248 13.4546C4.28005 13.4546 3.86163 13.627 3.51688 13.9716C3.17235 14.3161 3 14.7346 3 15.227C3 15.7196 3.17218 16.138 3.51688 16.4825C3.86163 16.8271 4.28018 16.9995 4.77248 16.9995C5.26484 16.9995 5.68329 16.8271 6.02798 16.4825C6.37254 16.138 6.54489 15.7196 6.54489 15.227C6.54489 14.7346 6.37254 14.3161 6.02798 13.9716C5.68339 13.627 5.26494 13.4546 4.77248 13.4546Z" fill="#F6F7FC"/>
<path d="M8.85296 11.1462C8.15743 10.4446 7.36044 9.88614 6.46185 9.47076C5.56326 9.05525 4.62154 8.80754 3.63687 8.72754H3.59079C3.43077 8.72754 3.29842 8.77989 3.19388 8.88449C3.06457 8.99514 3 9.13988 3 9.31833V10.5646C3 10.7184 3.05073 10.8508 3.15223 10.9617C3.25377 11.0725 3.38146 11.1341 3.53534 11.1462C4.94469 11.2817 6.14946 11.8496 7.14952 12.8496C8.14964 13.8496 8.71744 15.0544 8.85283 16.4637C8.86518 16.6177 8.92668 16.7454 9.03753 16.8468C9.14834 16.9486 9.28059 16.9994 9.43444 16.9994H10.6808C10.8592 16.9994 11.0038 16.9349 11.1146 16.8055C11.2317 16.6823 11.2839 16.5345 11.2718 16.3622C11.1917 15.3777 10.9439 14.4359 10.5285 13.5374C10.1132 12.6388 9.55457 11.8418 8.85296 11.1462Z" fill="#F6F7FC"/>
<path d="M14.8905 11.7511C14.232 10.2771 13.3273 8.96774 12.1764 7.82295C11.0316 6.67202 9.72232 5.76735 8.2482 5.10878C6.77424 4.45034 5.23099 4.08097 3.61844 4.00098H3.59079C3.43077 4.00098 3.29538 4.05637 3.18457 4.16718C3.06153 4.27786 3 4.41952 3 4.59187V5.91195C3 6.06586 3.0539 6.19963 3.16155 6.31352C3.26922 6.42743 3.39995 6.48735 3.55383 6.49362C4.87711 6.57375 6.13414 6.88772 7.32507 7.43545C8.51596 7.9832 9.54991 8.69561 10.427 9.57247C11.3038 10.4495 12.0162 11.4835 12.564 12.6744C13.1117 13.8655 13.4227 15.1223 13.4965 16.4456C13.5028 16.5996 13.5626 16.7304 13.6764 16.8381C13.7903 16.9457 13.9274 16.9997 14.0874 16.9997H15.4074C15.5797 16.9997 15.721 16.9382 15.8321 16.8149C15.9552 16.6919 16.0104 16.5474 15.9984 16.3811C15.9185 14.7685 15.549 13.2252 14.8905 11.7511Z" fill="#F6F7FC"/>
</g>
<defs>
<clipPath id="clip0">
<rect x="3" y="4" width="13" height="13" fill="white"/>
</clipPath>
</defs>
</svg>
